<svg width="217" height="165" viewBox="0 0 217 165" fill="none" xmlns="http://www.w3.org/2000/svg">
<path d="M115.082 47.0027L115.124 46.9606C120.095 42.1118 125.094 37.235 129.371 31.6294C133.661 26.0098 137.23 19.6615 140.784 13.3552C140.882 13.1731 140.826 12.9488 140.645 12.8507C140.465 12.7526 140.243 12.8087 140.146 12.9909C136.591 19.3112 133.05 25.6034 128.787 31.181C124.552 36.7305 119.595 41.5793 114.61 46.4281L114.569 46.4702C114.458 46.5823 114.43 46.7645 114.499 46.9046C114.569 47.0447 114.735 47.1288 114.888 47.1008C114.971 47.0868 115.041 47.0587 115.082 47.0027Z" fill="#9291D8"/>
<path opacity="0.9882" d="M143.284 14.5605C144.145 13.7196 144.617 12.7387 144.672 11.6035C144.728 10.4684 144.367 9.4454 143.575 8.5345C142.742 7.66563 141.77 7.18916 140.645 7.1331C139.521 7.07705 138.507 7.44141 137.605 8.2402C137.313 8.50647 137.077 8.80076 136.869 9.10907L136.605 9.59955C136.452 9.93589 136.341 10.2862 136.285 10.6506C136.091 11.7717 136.313 12.8228 136.952 13.8177C137.674 14.8127 138.577 15.4013 139.701 15.6115C140.812 15.8077 141.853 15.5835 142.839 14.9389L143.284 14.5605Z" fill="#FFECE8"/>
<path d="M137.23 66.6222L137.285 66.6082C143.436 64.5061 149.602 62.376 155.461 59.363C161.335 56.336 166.875 52.384 172.401 48.4742C172.554 48.362 172.596 48.1518 172.485 47.9837C172.374 47.8295 172.165 47.7875 171.999 47.8996C166.472 51.8235 160.96 55.7334 155.142 58.7464C149.338 61.7453 143.214 63.8474 137.063 65.9635L137.008 65.9776C136.869 66.0196 136.771 66.1597 136.771 66.3139C136.771 66.468 136.883 66.5942 137.021 66.6362C137.105 66.6502 137.174 66.6362 137.23 66.6222Z" fill="#9291D8"/>
<path opacity="0.9882" d="M174.04 50.4782C175.109 50.1138 175.887 49.4692 176.387 48.5302C176.886 47.5913 176.984 46.5683 176.678 45.4752C176.317 44.3961 175.678 43.6114 174.748 43.1069C173.818 42.6024 172.804 42.5043 171.721 42.8126C171.374 42.9247 171.055 43.0648 170.749 43.261L170.333 43.5693C170.069 43.7935 169.833 44.0458 169.638 44.3261C169.027 45.1949 168.805 46.1899 168.958 47.283C169.166 48.4181 169.708 49.287 170.582 49.9176C171.443 50.5342 172.429 50.7585 173.512 50.6043L174.04 50.4782Z" fill="#FFECE8"/>
<path opacity="0.9882" d="M166.736 31.2651L167.708 28.6024C159.974 28.7846 153.434 29.191 148.102 29.8356C137.702 31.0408 128.857 33.4232 121.567 37.0248C118.484 38.5663 115.707 40.4722 113.222 42.7285C112.5 43.1909 110.861 45.0968 108.292 48.4602C107.737 49.0768 106.418 51.333 104.335 55.2009C103.099 57.5272 101.336 61.7173 99.0308 67.7433L98.0588 70.3359C106.154 73.5451 113.319 75.1707 119.553 75.1987C124.511 74.9185 128.121 74.3299 130.356 73.447C133.3 72.5361 136.174 71.2889 138.979 69.7193C144.658 66.4961 149.421 62.1938 153.281 56.8405C158.266 50.0297 162.751 41.4952 166.736 31.2651Z" fill="#FBCF8D"/>
<path d="M141.437 46.8906C141.298 46.6384 140.993 46.5403 140.743 46.6804L98.0866 69.7473H98.0727C97.9894 69.7894 97.92 69.8595 97.8644 69.9435C97.7534 70.1397 97.7811 70.392 97.9478 70.5602C98.1005 70.7283 98.3504 70.7563 98.5587 70.6582L141.243 47.5773C141.479 47.4512 141.576 47.1289 141.437 46.8906Z" fill="white"/>
<path opacity="0.9882" d="M168.972 59.405C165.5 59.3209 161.099 59.8534 155.781 61.0166C150.74 62.1797 146.436 64.0296 142.867 66.538C141.173 67.8133 139.701 69.2007 138.438 70.7282C136.577 73.0405 134.939 75.4789 133.508 78.0435L132.772 79.3188C135.175 80.8463 137.674 82.2056 140.257 83.3828C141.992 84.1536 143.825 84.7141 145.783 85.0645C147.755 85.4148 149.838 85.4709 152.031 85.2186C152.615 85.2466 154.489 84.8543 157.655 84.0414C162.987 82.4018 167.722 79.9634 171.86 76.7262C175.623 73.559 178.511 70.1116 180.552 66.3559C181.621 64.506 182.635 62.6282 183.607 60.7363C177.414 59.7833 172.54 59.3349 168.972 59.405Z" fill="#9BD6FB"/>
<path d="M163.681 70.4199C163.612 70.1396 163.32 69.9854 163.057 70.0555L132.814 78.562C132.606 78.618 132.439 78.8142 132.439 79.0385C132.439 79.2066 132.509 79.3608 132.634 79.4589C132.759 79.557 132.925 79.599 133.078 79.543L163.32 71.0365C163.598 70.9804 163.751 70.7002 163.681 70.4199Z" fill="white"/>
<path opacity="0.9882" d="M110.695 18.6525C108.182 20.6004 106.738 21.8196 106.377 22.2961C104.627 24.0478 103.114 25.9257 101.836 27.9297C99.3648 31.7134 97.6013 36.0438 96.5321 40.9346C95.7129 44.34 95.6018 49.1187 96.185 55.2709L97.7818 54.8785C103.669 53.5051 108.307 51.7534 111.681 49.5952C115.625 47.0727 119.027 43.5132 121.887 38.9446C124.747 34.3761 126.539 29.8076 127.247 25.253C127.927 21.7776 127.691 16.5924 126.566 9.69757C119.624 13.0049 114.333 15.9898 110.695 18.6525Z" fill="#FC97C3"/>
<path d="M95.9205 54.1637C95.8511 54.2478 95.8094 54.374 95.8094 54.5001C95.8233 54.7804 96.0594 55.0046 96.3371 54.9906C96.4898 54.9906 96.6287 54.9065 96.712 54.7944L113.777 32.9046C113.958 32.6804 113.916 32.3581 113.694 32.1759C113.472 31.9937 113.152 32.0358 112.972 32.26L95.9205 54.1637Z" fill="white"/>
<path opacity="0.9882" d="M166.736 31.2651L167.708 28.6024C159.974 28.7846 153.434 29.191 148.102 29.8356C137.702 31.0408 128.857 33.4232 121.567 37.0248C118.484 38.5663 115.707 40.4722 113.222 42.7285C112.5 43.1909 110.861 45.0968 108.292 48.4602C107.737 49.0768 106.418 51.333 104.335 55.2009C103.099 57.5272 101.336 61.7173 99.0308 67.7433L98.0588 70.3359C106.154 73.5451 113.319 75.1707 119.553 75.1987C124.511 74.9185 128.121 74.3299 130.356 73.447C133.3 72.5361 136.174 71.2889 138.979 69.7193C144.658 66.4961 149.421 62.1938 153.281 56.8405C158.266 50.0297 162.751 41.4952 166.736 31.2651Z" fill="#FBCF8D"/>
<path d="M141.437 46.8906C141.298 46.6384 140.993 46.5403 140.743 46.6804L98.0866 69.7473H98.0727C97.9894 69.7894 97.92 69.8595 97.8644 69.9435C97.7534 70.1397 97.7811 70.392 97.9478 70.5602C98.1005 70.7283 98.3504 70.7563 98.5587 70.6582L141.243 47.5773C141.479 47.4512 141.576 47.1289 141.437 46.8906Z" fill="white"/>
<path opacity="0.9882" d="M168.972 59.405C165.5 59.3209 161.099 59.8534 155.781 61.0166C150.74 62.1797 146.436 64.0296 142.867 66.538C141.173 67.8133 139.701 69.2007 138.438 70.7282C136.577 73.0405 134.939 75.4789 133.508 78.0435L132.772 79.3188C135.175 80.8463 137.674 82.2056 140.257 83.3828C141.992 84.1536 143.825 84.7141 145.783 85.0645C147.755 85.4148 149.838 85.4709 152.031 85.2186C152.615 85.2466 154.489 84.8543 157.655 84.0414C162.987 82.4018 167.722 79.9634 171.86 76.7262C175.623 73.559 178.511 70.1116 180.552 66.3559C181.621 64.506 182.635 62.6282 183.607 60.7363C177.414 59.7833 172.54 59.3349 168.972 59.405Z" fill="#FCCC5D"/>
<path d="M163.681 70.4199C163.612 70.1396 163.32 69.9854 163.057 70.0555L132.814 78.562C132.606 78.618 132.439 78.8142 132.439 79.0385C132.439 79.2066 132.509 79.3608 132.634 79.4589C132.759 79.557 132.925 79.599 133.078 79.543L163.32 71.0365C163.598 70.9804 163.751 70.7002 163.681 70.4199Z" fill="white"/>
<path opacity="0.9882" d="M110.695 18.6525C108.182 20.6004 106.738 21.8196 106.377 22.2961C104.627 24.0478 103.114 25.9257 101.836 27.9297C99.3648 31.7134 97.6013 36.0438 96.5321 40.9346C95.7129 44.34 95.6018 49.1187 96.185 55.2709L97.7818 54.8785C103.669 53.5051 108.307 51.7534 111.681 49.5952C115.625 47.0727 119.027 43.5132 121.887 38.9446C124.747 34.3761 126.539 29.8076 127.247 25.253C127.927 21.7776 127.691 16.5924 126.566 9.69757C119.624 13.0049 114.333 15.9898 110.695 18.6525Z" fill="#FFECE8"/>
<path d="M95.9205 54.1637C95.8511 54.2478 95.8094 54.374 95.8094 54.5001C95.8233 54.7804 96.0594 55.0046 96.3371 54.9906C96.4898 54.9906 96.6287 54.9065 96.712 54.7944L113.777 32.9046C113.958 32.6804 113.916 32.3581 113.694 32.1759C113.472 31.9937 113.152 32.0358 112.972 32.26L95.9205 54.1637Z" fill="white"/>
<path opacity="0.9882" d="M140.701 99.8913C129.246 106.688 120.401 110.514 114.166 111.397C108.126 112.728 98.406 112.196 85.0204 109.813L4.4711 42.5463L4.16562 44.214C0.847005 58.6623 3.51301 80.6222 12.1636 110.079C20.3005 134.366 29.4649 150.215 39.6568 157.657C47.0994 161.735 57.3746 164.019 70.4963 164.538C83.1598 165.491 98.2949 164.664 115.929 162.043C131.759 159.983 140.854 157.853 143.186 155.625C146.88 153.41 149.296 148.66 150.435 141.373L151.226 136.328C143.784 121.739 140.271 109.589 140.701 99.8913Z" fill="#9291D8"/>
<path opacity="0.9882" d="M71.9127 130.47C72.9124 131.184 74.1065 131.549 75.4812 131.577C76.7448 131.577 77.8695 131.002 78.8415 129.853C79.9662 128.41 80.4661 126.938 80.3411 125.439C80.2856 124.752 80.0356 123.981 79.5774 123.14L79.2442 122.622C79.0081 122.285 78.7582 121.991 78.4666 121.739C77.8973 121.22 77.2169 120.842 76.4254 120.604C75.7728 120.394 75.023 120.267 74.176 120.239L73.7872 120.253C73.5372 120.267 73.2873 120.31 73.0513 120.366C72.4819 120.534 72.1626 120.66 72.0654 120.744C71.4683 121.066 70.9407 121.571 70.4825 122.257C69.6077 123.967 69.3022 125.551 69.5799 126.994C69.8298 127.891 70.0242 128.424 70.1631 128.592C70.663 129.348 71.2462 129.993 71.9127 130.47Z" fill="white"/>
<path opacity="0.9882" d="M79.272 143.797C79.1886 143.685 79.0914 143.587 78.9804 143.489C78.5499 143.096 78.0361 142.886 77.4668 142.872H77.3558C76.8975 142.9 76.4949 143.082 76.1477 143.447L76.0089 143.615C75.9256 143.727 75.87 143.853 75.8145 143.979C75.7173 144.231 75.7034 144.498 75.7589 144.792C75.8145 145.03 75.8978 145.24 76.0228 145.422C76.1894 145.647 76.3005 145.759 76.356 145.787C76.4393 145.857 76.5365 145.927 76.6476 145.983C76.6615 146.011 76.7448 146.081 76.8975 146.179C77.0503 146.277 77.1475 146.333 77.1891 146.347C77.3835 146.46 77.6335 146.516 77.9528 146.516C78.0084 146.53 78.1333 146.502 78.3555 146.459C78.4388 146.431 78.5221 146.403 78.6054 146.375C78.8693 146.235 79.0637 146.081 79.2025 145.913C79.2581 145.871 79.3553 145.703 79.4802 145.436C79.5635 145.212 79.5913 144.974 79.5774 144.722C79.5635 144.456 79.4941 144.203 79.3691 143.965L79.272 143.797Z" fill="white"/>
<path opacity="0.9882" d="M60.0962 140.7C59.9018 140.532 59.6935 140.406 59.4852 140.321C59.2214 140.237 59.0548 140.209 58.9715 140.223L58.8465 140.237C58.6799 140.251 58.5271 140.307 58.3883 140.406C58.2216 140.546 58.1244 140.63 58.0967 140.686C57.8745 141.008 57.7634 141.344 57.7773 141.695L57.8051 141.863C57.8329 141.975 57.8745 142.073 57.9301 142.171C58.055 142.382 58.2078 142.55 58.3605 142.69C58.4438 142.76 58.5132 142.816 58.5966 142.858L58.7215 142.914C58.9159 142.984 59.0548 142.998 59.1659 142.984L59.4158 142.97C59.513 142.956 59.6241 142.942 59.7213 142.914C59.9157 142.858 60.0962 142.746 60.2489 142.606C60.3322 142.536 60.4155 142.452 60.485 142.367L60.5683 142.241C60.6655 142.073 60.721 141.891 60.7071 141.723C60.6932 141.541 60.6238 141.372 60.5127 141.19C60.485 141.078 60.3461 140.924 60.0962 140.7Z" fill="white"/>
<path opacity="0.9882" d="M104.044 130.694L103.766 129.867C103.363 128.816 102.849 127.961 102.197 127.317L101.697 126.868C101.35 126.602 100.961 126.378 100.544 126.195C99.6835 125.859 98.8504 125.691 98.045 125.677L97.4896 125.705C96.0177 125.859 94.6431 126.616 93.3795 128.003C92.1298 129.643 91.5744 131.395 91.7133 133.23C91.866 135.052 92.713 136.636 94.2404 137.995C94.6014 138.275 95.0041 138.528 95.4346 138.724L96.1011 138.99C97.2535 139.341 98.2255 139.467 99.0587 139.383C100.517 139.228 101.794 138.486 102.891 137.154L103.321 136.524C103.585 136.089 103.794 135.655 103.946 135.192C104.266 134.281 104.391 133.301 104.307 132.278C104.28 131.759 104.182 131.226 104.044 130.694Z" fill="white"/>
<path opacity="0.9882" d="M98.0034 151.196C97.1425 150.313 96.0594 149.865 94.7542 149.837H94.5181C94.0599 149.865 93.6295 149.963 93.2129 150.131C92.4075 150.454 91.8105 150.818 91.4217 151.224C90.533 152.163 90.1581 153.256 90.2692 154.504C90.3664 155.765 90.8663 156.83 91.7688 157.671C92.8102 158.638 94.0738 159.142 95.5595 159.17C96.1149 159.156 96.6009 159.058 97.0175 158.876C97.559 158.652 98.0173 158.315 98.406 157.895C99.2253 156.928 99.6002 155.793 99.5308 154.518C99.4752 153.326 98.9615 152.219 98.0034 151.196Z" fill="white"/>
<path opacity="0.9882" d="M75.759 157.825C73.7317 157.741 72.0654 158.455 70.7602 159.997C70.1215 160.81 69.7882 161.679 69.7466 162.576C69.7049 163.402 69.941 164.047 70.4825 164.51L79.2997 165C80.5217 163.725 80.73 162.211 79.9246 160.459C79.0637 158.862 77.6751 157.979 75.759 157.825Z" fill="white"/>
<path opacity="0.9882" d="M56.3194 111.327C56.2222 111.06 56.0694 110.836 55.875 110.654C55.5973 110.444 55.4168 110.332 55.3335 110.318C55.028 110.205 54.7781 110.163 54.6114 110.177H54.4865C53.9449 110.22 53.4728 110.444 53.0841 110.85C52.7508 111.214 52.5842 111.635 52.5703 112.111C52.5564 112.336 52.5981 112.574 52.6953 112.826C52.8897 113.247 53.0424 113.513 53.1535 113.639C53.3062 113.821 53.4867 113.947 53.7089 114.059C53.9866 114.185 54.2504 114.241 54.5004 114.241C54.7503 114.241 55.0002 114.185 55.2502 114.073C55.2918 114.059 55.4168 113.989 55.6112 113.863C55.7362 113.765 55.8473 113.653 55.9445 113.527C56.1388 113.289 56.2777 113.022 56.361 112.728C56.4027 112.574 56.4304 112.42 56.4443 112.266L56.4582 112.013L56.4304 111.775C56.4027 111.607 56.361 111.453 56.3194 111.327Z" fill="white"/>
<path opacity="0.9882" d="M56.1249 160.025C56.2499 159.394 56.1805 158.736 55.9305 158.063C55.2918 156.129 53.9449 154.742 51.9038 153.887C49.7515 153.214 47.877 153.34 46.294 154.265C45.4887 154.77 44.7805 155.499 44.1835 156.48C43.4753 157.657 43.1559 158.596 43.2254 159.268L45.0027 159.969C46.9883 160.796 48.0714 161.23 48.2241 161.258C51.0151 162.127 52.848 162.646 53.7227 162.8C53.7922 162.856 53.8894 162.842 54.0282 162.786C54.2921 162.828 54.6253 162.884 55.0557 162.954C55.1529 162.968 55.2779 162.982 55.4584 162.982C55.7361 162.996 55.9305 162.912 56.0138 162.758L56.111 163.108C56.0972 163.038 56.1249 162.45 56.1805 161.328C56.1944 161.16 56.1805 160.964 56.1666 160.712C56.1805 160.46 56.1527 160.235 56.1249 160.025Z" fill="white"/>
<path opacity="0.9882" d="M46.183 137.182C46.7384 136.916 47.2383 136.594 47.6688 136.243C48.5297 135.529 49.1545 134.632 49.5155 133.567L49.7099 132.614C49.8071 131.983 49.8488 131.367 49.821 130.764C49.7793 129.559 49.4739 128.396 48.9184 127.288C48.6407 126.728 48.3075 126.195 47.9048 125.663L47.0856 124.78C44.8917 122.58 42.67 121.473 40.4206 121.473H40.3511C39.6708 121.459 38.6155 121.795 37.213 122.482C36.6576 122.804 36.1577 123.182 35.7134 123.645L35.0886 124.374C33.8805 126.055 33.2835 128.059 33.3112 130.372C33.4779 131.507 33.6306 132.165 33.7972 132.319C33.9777 132.712 34.2138 133.062 34.5054 133.385C34.7137 133.917 34.9914 134.436 35.3246 134.926C35.4635 135.15 35.7967 135.585 36.3383 136.201C37.6435 137.561 39.4069 138.247 41.6147 138.247C42.5867 138.317 43.8086 138.093 45.3082 137.589L46.183 137.182Z" fill="white"/>
<path opacity="0.9882" d="M35.9216 108.089C36.6576 107.711 37.2269 107.235 37.6573 106.66C38.2961 105.805 38.5599 104.698 38.4349 103.339C38.3377 102.47 38.1155 101.685 37.7406 101.012C37.5601 100.676 37.338 100.368 37.088 100.073L36.6853 99.667C36.241 99.2466 35.6856 98.9103 35.0469 98.644C34.7553 98.4899 34.2276 98.3918 33.4917 98.3497H33.2695C32.6725 98.3778 32.0476 98.5319 31.4089 98.8122C30.8673 99.1485 30.4786 99.4708 30.2564 99.7792C29.7565 100.382 29.3677 101.026 29.1039 101.699C28.7984 102.61 28.6873 103.325 28.7845 103.815C28.8678 105.048 29.4649 106.17 30.5896 107.179C31.8532 108.033 33.1584 108.468 34.4914 108.468C35.0191 108.44 35.4912 108.314 35.9216 108.089Z" fill="white"/>
<path opacity="0.9882" d="M19.5368 113.611C18.1899 113.723 17.0652 114.242 16.1349 115.152C15.6905 115.601 15.3573 116.119 15.1351 116.736C14.9268 117.437 14.9407 117.857 15.1629 118.025L17.7317 124.948C18.3565 125.355 19.3702 125.383 20.7726 125.032C22.175 124.57 23.2581 123.939 24.0635 123.126C25.4937 121.361 25.8408 119.399 25.091 117.198C24.1329 114.802 22.2861 113.597 19.5368 113.611Z" fill="white"/>
<path opacity="0.9882" d="M32.1171 147.973C31.8533 147.931 31.6033 147.945 31.3534 148.043C31.0618 148.183 30.8952 148.337 30.8535 148.492L32.3809 150.832C32.8808 150.902 33.2835 150.706 33.6028 150.243C33.7278 150.047 33.7833 149.809 33.7694 149.557C33.7556 149.374 33.6861 149.178 33.5473 148.968C33.1585 148.407 32.6864 148.071 32.1171 147.973Z" fill="white"/>
<path opacity="0.9882" d="M17.4818 76.6702C18.1205 76.7402 18.6343 76.53 19.0369 76.0255C19.3702 75.5771 19.5368 74.8904 19.5368 73.9375L18.1483 73.7273C17.9677 73.1106 17.5373 72.8023 16.8291 72.7883C16.1349 72.9285 15.6767 73.3489 15.4406 74.0496C15.3295 74.5821 15.4823 75.1146 15.8849 75.6612C16.4126 76.2357 16.9263 76.5721 17.4818 76.6702Z" fill="white"/>
<path opacity="0.9882" d="M15.3435 94.9725C15.4129 94.7763 15.4407 94.5801 15.4407 94.3699C15.4268 93.8934 15.274 93.501 14.9686 93.2067C14.5659 92.8423 14.1493 92.6602 13.705 92.6602H13.6772C13.5939 92.6602 13.5106 92.6742 13.4134 92.6882L13.2329 92.7583C13.0107 92.8564 12.8163 92.9825 12.6636 93.1506C12.5108 93.3188 12.3998 93.515 12.3164 93.7392C12.2609 93.9354 12.247 94.1176 12.2609 94.2718C12.2609 94.3558 12.2887 94.4259 12.3026 94.51C12.372 94.6922 12.4275 94.7903 12.4553 94.8183C12.4692 94.9024 12.5108 95.0425 12.5941 95.2107C12.7191 95.4349 12.8024 95.561 12.858 95.6031C13.0107 95.7712 13.1773 95.8974 13.3717 95.9955C13.6356 96.0936 13.8022 96.1496 13.8716 96.1496C14.1215 96.1356 14.2604 96.1076 14.2882 96.0936C14.3715 96.0655 14.4548 96.0375 14.5381 95.9955C14.6908 95.9114 14.8158 95.8133 14.9269 95.6732C14.9686 95.6311 15.0658 95.491 15.2046 95.2527C15.2602 95.1686 15.3018 95.0706 15.3435 94.9725Z" fill="white"/>
<path opacity="0.9882" d="M4.79051 57.5412C3.76299 56.9526 3.1798 56.8265 3.04095 57.1768C2.83267 57.4291 2.86044 60.2599 3.09649 65.6412C3.30477 69.3549 3.52694 71.2608 3.76299 71.3449L3.73522 71.8914C4.73497 71.6112 5.80415 70.7283 6.92887 69.2428C7.762 67.9535 8.24799 66.5241 8.35907 64.9405C8.40073 62.9506 7.87308 61.1287 6.74836 59.4751C6.17906 58.6763 5.52644 58.0177 4.79051 57.5412Z" fill="white"/>
<path opacity="0.9882" d="M117.735 153.144H117.721C117.679 152.976 117.624 152.808 117.554 152.668L117.429 152.458C117.346 152.331 117.235 152.205 117.124 152.107C116.888 151.897 116.596 151.743 116.249 151.631C115.999 151.561 115.693 151.519 115.36 151.505L115.152 151.519C114.458 151.589 113.944 151.883 113.611 152.402C113.375 152.738 113.222 153.088 113.152 153.453L113.125 153.719C113.111 153.901 113.125 154.083 113.152 154.279L113.222 154.56C113.291 154.742 113.375 154.91 113.472 155.064C113.666 155.372 113.93 155.625 114.249 155.807C114.846 156.143 115.513 156.283 116.221 156.255C116.888 156.199 117.374 155.947 117.651 155.499C117.929 155.05 118.012 154.49 117.915 153.831C117.873 153.607 117.818 153.383 117.735 153.144Z" fill="white"/>
<path opacity="0.9882" d="M142.117 150.734C140.451 149.963 138.716 149.823 136.91 150.299C134.939 150.874 133.356 152.107 132.12 153.999C130.662 156.171 130.162 158.021 130.648 159.577L130.523 159.633C130.565 159.619 130.606 159.605 130.648 159.591C130.648 159.605 130.662 159.619 130.662 159.633L131.065 159.521C131.856 159.465 132.661 159.38 133.481 159.268C134.133 159.17 134.744 159.044 135.3 158.904C135.786 158.834 137.299 158.287 139.826 157.25C140.09 157.124 140.34 157.012 140.576 156.9C140.868 156.802 141.034 156.732 141.062 156.69C141.243 156.592 141.423 156.508 141.59 156.409C142.256 156.087 142.673 155.849 142.826 155.709C144.103 154.952 144.825 154.349 145.006 153.915C145.297 152.794 144.339 151.729 142.117 150.734Z" fill="white"/>
<path opacity="0.9882" d="M139.701 140.574C140.396 141.022 141.076 141.218 141.729 141.176C142.409 141.162 143.02 140.91 143.575 140.42C144.145 139.887 144.408 139.228 144.381 138.458C144.353 138.093 144.256 137.715 144.061 137.322C144.034 137.224 143.867 137 143.561 136.664C143.034 136.159 142.339 135.893 141.465 135.865L141.243 135.879C141.09 135.893 140.951 135.907 140.798 135.949C140.437 136.061 140.229 136.131 140.173 136.187C139.896 136.327 139.646 136.51 139.41 136.748C139.021 137.182 138.799 137.491 138.771 137.673C138.702 137.855 138.66 138.051 138.632 138.275L138.646 138.598C138.715 139.397 139.063 140.069 139.701 140.574Z" fill="white"/>
<path opacity="0.9882" d="M119.137 135.192L118.998 135.08C118.901 135.01 118.79 134.954 118.665 134.898C118.373 134.786 118.123 134.73 117.915 134.744H117.762C117.36 134.772 117.026 134.94 116.749 135.248C116.665 135.361 116.582 135.473 116.527 135.599L116.443 135.781C116.346 136.019 116.318 136.257 116.332 136.496C116.346 136.622 116.36 136.748 116.402 136.86L116.485 137.028C116.596 137.252 116.749 137.449 116.943 137.603C117.138 137.771 117.374 137.911 117.637 138.009C117.804 138.079 117.985 138.107 118.193 138.093C118.512 138.079 118.804 137.911 119.068 137.589C119.193 137.393 119.276 137.224 119.29 137.098C119.387 136.986 119.47 136.832 119.54 136.636C119.595 136.454 119.623 136.271 119.609 136.061C119.568 135.753 119.415 135.459 119.137 135.192Z" fill="white"/>
<path opacity="0.9882" d="M130.148 121.991C130.051 121.683 129.884 121.403 129.662 121.136C129.162 120.59 128.621 120.324 128.024 120.338H127.968C127.385 120.352 126.927 120.562 126.607 120.94C126.482 121.08 126.288 121.375 126.01 121.837C125.871 122.131 125.774 122.482 125.747 122.888C125.747 123.449 125.927 123.925 126.302 124.332C126.705 124.71 127.232 124.906 127.899 124.934C128.218 124.934 128.537 124.864 128.857 124.738C129.065 124.668 129.301 124.514 129.579 124.289C129.801 124.065 129.982 123.799 130.107 123.477C130.176 123.309 130.218 123.14 130.259 122.944L130.273 122.692L130.259 122.44C130.232 122.3 130.204 122.131 130.148 121.991Z" fill="white"/>
<path opacity="0.9882" d="M131.495 107.333C131.745 107.319 131.925 107.291 132.023 107.249C132.161 107.207 132.3 107.136 132.439 107.052C132.759 106.828 132.995 106.576 133.133 106.296C133.231 106.057 133.272 105.903 133.272 105.847C133.314 105.581 133.314 105.357 133.286 105.146C133.258 104.95 133.175 104.782 133.064 104.642L132.953 104.53C132.897 104.502 132.842 104.488 132.772 104.488H132.759C132.661 104.502 132.606 104.502 132.606 104.516C132.481 104.572 132.328 104.642 132.12 104.754C131.481 105.118 131.12 105.315 131.065 105.357C130.676 105.581 130.398 105.763 130.218 105.889C130.134 105.959 130.079 106.001 130.037 106.043L129.995 106.113C129.968 106.141 129.954 106.212 129.954 106.338C129.954 106.38 129.968 106.436 129.995 106.478C130.065 106.59 130.12 106.66 130.162 106.688C130.176 106.716 130.19 106.744 130.231 106.786C130.245 106.814 130.315 106.87 130.426 106.968C130.537 107.066 130.731 107.164 130.967 107.235C131.148 107.305 131.328 107.333 131.495 107.333Z" fill="white"/>
<path opacity="0.9882" d="M142.992 116.89C142.465 117.072 142.034 117.745 141.701 118.922C141.479 119.917 141.562 120.772 141.951 121.487C142.395 122.58 142.951 123.379 143.631 123.869C144.645 124.556 145.505 124.836 146.2 124.724L142.992 116.89Z" fill="white"/>
<path opacity="0.9882" d="M119.623 109.743C116.638 110.626 114.68 111.158 113.708 111.341C111.431 111.803 109.917 112.069 109.167 112.139C108.626 112.252 107.098 112.294 104.557 112.294C104.141 112.308 103.085 112.196 101.364 111.957L101.766 112.139L101.378 112.097C101.308 111.971 101.28 112.013 101.308 112.238C101.322 112.392 101.378 112.602 101.475 112.84C101.711 113.485 101.975 114.045 102.252 114.522C102.78 115.405 103.391 116.133 104.085 116.708C105.363 117.787 107.196 118.516 109.57 118.866C111.903 119.132 113.944 118.838 115.707 117.955C116.652 117.465 117.457 116.848 118.137 116.119C118.429 115.853 118.734 115.573 119.026 115.251C120.498 113.331 121.012 111.481 120.539 109.673C120.428 109.589 120.109 109.617 119.623 109.743Z" fill="white"/>
<path opacity="0.9882" d="M95.0874 111.187H95.0457H95.018L95.0041 111.201V111.215V111.229L95.018 111.271L95.0457 111.299L95.1846 111.215L95.1291 111.201L95.0874 111.187Z" fill="#12167D"/>
<path opacity="0.9882" d="M158.294 71.1907L156.655 69.3829C154.975 67.7573 153.198 66.6923 151.309 66.1878C148.477 65.445 145.186 65.459 141.423 66.2438C140.035 64.9125 137.493 64.1838 133.786 64.0436H133.494C127.718 64.2538 117.374 66.3559 102.447 70.3779L101.35 88.2597L91.9215 102.68C91.9354 103.955 92.1298 105.301 92.4908 106.716C93.7266 111.635 99.9612 113.457 111.181 112.167C119.304 111.172 129.079 107.193 140.534 100.256C140.062 107.529 142.048 116.316 146.519 126.644C149.282 133.342 152.434 138.948 155.975 143.447C157.586 144.007 159.085 144.287 160.474 144.273C163.237 144.147 165.82 143.629 168.222 142.704C166.806 136.748 165.986 128.368 165.764 117.577C169.708 121.907 172.832 124.612 175.137 125.719C176.706 126.91 182.218 129.321 191.661 132.922C194.688 132.754 197.381 131.24 199.742 128.382L168.93 87.8253C166.681 84.7282 163.126 79.1927 158.294 71.1907Z" fill="#D09D4F"/>
<path opacity="0.9882" d="M169.958 89.0726C169.041 91.1326 168.264 92.5901 167.625 93.4449C166.917 94.4119 165.931 95.4629 164.667 96.5981L164.515 96.7382L163.265 86.5641C161.974 88.4139 160.654 89.8994 159.335 91.0345C157.461 92.6601 155.6 93.9214 153.753 94.8043C152.254 95.547 150.657 96.1076 148.935 96.4579C146.949 96.8783 144.27 97.2007 140.909 97.3968L140.854 97.7892C140.423 100.578 140.257 102.876 140.354 104.684C140.465 106.464 140.84 108.748 141.479 111.537C145.311 113.106 149.005 113.527 152.573 112.812C156.989 112.111 161.21 110.626 165.223 108.328L165.667 114.2C168.083 113.471 171.068 111.523 174.623 108.37C176.206 106.856 177.192 105.749 177.581 105.02C178.247 103.983 178.789 102.736 179.233 101.279L169.958 89.0726Z" fill="#FCCC5D"/>
<path opacity="0.9882" d="M118.457 78.1556C112.486 82.7102 107.945 85.2887 104.793 85.9053C107.695 82.556 108.987 79.4309 108.654 76.53C108.654 76.1797 108.598 75.7873 108.501 75.3669C108.556 75.2267 108.612 75.1006 108.654 74.9605C108.598 75.1006 108.542 75.2267 108.501 75.3669C108.209 74.1477 107.529 72.6482 106.446 70.8684L103.224 68.3739C108.306 60.3159 110.667 52.2719 110.278 44.2419C109.903 38.7064 109.209 34.6985 108.223 32.246C106.71 28.2941 105.668 25.9958 105.071 25.3231C104.196 23.8657 103.183 22.4783 102.03 21.189C97.8923 16.2141 91.0329 12.4864 81.4658 10.0199C80.5772 9.71163 78.1889 9.43135 74.3148 9.19312C72.4959 9.19312 70.9823 9.29121 69.7743 9.50142C67.6915 9.66959 64.72 10.6365 60.8321 12.4023C59.1797 13.1731 56.597 14.7006 53.084 16.9849L70.4825 26.3882C71.7877 27.0889 72.9402 27.8737 73.9122 28.7566C75.7173 29.8917 76.5365 32.9607 76.3977 37.9357L62.1373 46.8065C64.9977 50.4922 66.6362 53.393 67.0667 55.5091C67.2194 57.0086 67.1916 57.8775 66.9833 58.1438C66.6084 59.2789 65.9003 60.3159 64.8311 61.2549C58.8187 65.9215 52.9452 65.9495 47.2105 61.3389L38.0739 74.2878L47.1966 94.8603C52.8896 102.68 58.7909 107.837 64.9005 110.346C70.899 112.994 77.1752 114.382 83.7292 114.48C87.8393 114.718 92.8936 113.569 98.9059 111.032C104.696 108.37 109.848 104.432 114.36 99.2186C117.221 96.1636 120.345 90.3478 123.747 81.7712L123.164 81.491C120.914 80.482 119.345 79.3749 118.457 78.1556Z" fill="#FFA959"/>
<path opacity="0.9882" d="M178.664 152.345L170.596 145.437C169.68 144.512 168.986 143.601 168.527 142.718C168.5 142.662 168.403 142.662 168.208 142.704C166.792 143.222 165.403 143.671 164.029 144.035C163.459 144.189 162.696 144.301 161.751 144.357C159.016 144.47 157.086 144.161 155.961 143.433L156.697 144.035C157.003 144.428 157.252 144.946 157.475 145.605C158.433 149.36 158.96 151.238 159.071 151.252C159.405 152.079 159.918 152.668 160.613 153.046C161.279 153.438 161.987 153.663 162.765 153.733C163.112 153.803 164.167 153.761 165.931 153.593C166.403 153.579 166.917 153.621 167.472 153.719C168.055 153.831 168.639 153.971 169.208 154.181C171.332 155.134 172.54 155.611 172.818 155.611C175.081 156.017 176.609 156.157 177.4 156.031C178.567 155.863 179.539 155.583 180.33 155.204C180.719 154.994 180.774 154.7 180.511 154.321C180.15 153.817 179.539 153.144 178.664 152.345Z" fill="#FFA959"/>
<path opacity="0.9882" d="M216.043 141.555C215.738 140.602 214.683 139.411 212.891 137.981C212.058 137.336 210.934 136.58 209.517 135.739C205.657 133.693 203.644 132.558 203.505 132.348C201.644 131.03 200.45 129.853 199.936 128.844L199.784 128.368C198.339 130.666 195.632 132.235 191.633 133.076C192.66 133.567 193.535 134.295 194.257 135.248C194.465 135.403 195.076 136.678 196.09 139.046C196.354 139.523 196.659 139.901 196.993 140.181C197.492 140.574 198.006 140.812 198.52 140.896C198.867 141.022 199.909 141.036 201.672 140.938C202.005 140.952 202.338 140.994 202.672 141.05L207.74 142.494C209.795 142.998 211.267 143.264 212.142 143.306C215.294 143.517 216.613 142.928 216.043 141.555Z" fill="#FFA959"/>
<path opacity="0.9882" d="M66.1502 39.0288C59.3463 33.6894 52.3619 27.3972 45.197 20.124L25.9657 38.0618C27.146 49.1188 32.6724 58.6342 42.5727 66.5661C52.6396 73.3769 60.8598 73.9935 67.2471 68.43C73.3567 61.8014 74.4259 54.1218 70.4685 45.4051C69.3438 42.8826 67.9136 40.7525 66.1502 39.0288Z" fill="#FFECE8"/>
<path opacity="0.9882" d="M133.244 68.6262C133.203 68.5701 132.689 68.6962 131.703 68.9905C131.287 69.1026 130.939 69.2007 130.634 69.2988L130.912 69.0886C131.176 68.7803 131.162 68.6122 130.87 68.5981C129.759 68.9765 128.204 69.3829 126.205 69.7893C124.538 70.2097 123.316 70.7283 122.525 71.3309C122.15 71.5691 121.692 72.1717 121.164 73.1246C120.081 75.0305 119.262 76.7262 118.693 78.2117C118.679 78.2397 118.679 78.2537 118.665 78.2818C118.665 78.2958 118.651 78.2958 118.651 78.3098C118.609 78.4359 118.581 78.5901 118.568 78.7723C118.554 79.2067 118.748 79.5711 119.137 79.9074L119.165 79.0806C119.387 79.3608 119.706 79.6691 120.109 79.9915C120.97 80.6081 121.886 81.0986 122.83 81.491C122.955 81.6451 123.316 81.4769 123.913 81.0005C124.469 80.5801 125.01 80.0055 125.524 79.3048C125.816 78.9404 126.08 78.3659 126.33 77.6091C126.399 77.469 126.482 77.3709 126.552 77.3008C126.691 77.1887 126.899 77.0766 127.19 76.9504C129.343 76.1657 130.412 75.7593 130.384 75.7172C130.787 75.493 131.064 75.2127 131.217 74.8624C131.481 74.1617 131.495 73.7973 131.273 73.7833C130.259 73.9375 128.759 74.3298 126.774 74.9465L126.718 74.9044C127.607 74.6101 128.801 74.2317 130.301 73.7833C130.884 73.5731 131.287 73.4049 131.509 73.2508C132.009 72.9425 132.384 72.5641 132.62 72.1437C133.022 71.3589 133.119 70.9245 132.925 70.8123C132.745 70.8123 132.272 70.9385 131.509 71.1627C129.12 72.0175 127.593 72.522 126.927 72.7042C126.441 72.8444 126.107 72.8864 125.927 72.8304L126.08 72.7182C126.954 72.452 128.871 71.7653 131.856 70.6582C132.3 70.476 132.647 70.3078 132.911 70.1257C133.258 69.9014 133.453 69.6071 133.508 69.2848C133.592 68.9065 133.508 68.6822 133.244 68.6262Z" fill="#FFECE8"/>
<path opacity="0.9882" d="M72.2876 48.5442C70.9824 45.6994 69.6216 43.6814 68.2331 42.4902L61.1932 45.9656C62.8317 47.9136 64.2202 49.8335 65.3727 51.7394C66.1086 53.0146 66.5668 54.2619 66.7474 55.4811C66.914 56.7143 66.6779 57.9055 66.0253 59.0546L65.4838 59.8815C65.0811 60.428 64.5951 60.9325 64.0258 61.409C63.4565 61.8854 62.8317 62.3059 62.1513 62.6842C60.7489 63.441 59.1798 63.9175 57.4441 64.1137C56.9859 64.2678 55.6112 64.1977 53.3201 63.9035C51.4456 63.5391 49.5017 62.9225 47.5022 62.0536C44.489 60.7223 41.4342 59.1808 38.31 57.429L44.4612 68.5841L45.3499 69.0185C48.9185 70.7282 51.4178 71.6672 52.8203 71.8634C54.9586 72.3118 57.0414 72.4239 59.0548 72.1997C61.2765 71.9755 63.4287 71.4289 65.4977 70.5601C67.5388 69.7192 69.3162 68.5 70.8297 66.8744C71.6767 66.1177 72.5931 64.5901 73.5929 62.3059C74.3288 60.2879 74.6065 58.2138 74.426 56.1117C74.1066 53.2669 73.3846 50.7444 72.2876 48.5442Z" fill="#FBCF8D"/>
<path opacity="0.9882" d="M109.709 92.6881C108.334 91.581 106.529 89.4789 104.294 86.3818L97.0593 88.3158C98.0035 90.4739 98.8505 92.0575 99.6281 93.0665C100.17 93.9073 101.253 95.1125 102.877 96.6821C104.391 98.0975 105.835 99.2186 107.196 100.045C108.654 100.9 110.181 101.503 111.792 101.839L116.499 96.7521C113.305 95.2246 111.042 93.8653 109.709 92.6881Z" fill="#FBCF8D"/>
<path opacity="0.9882" d="M66.3725 24.3001C67.9832 24.9448 69.1634 25.4913 69.9271 25.9398C70.6908 26.3742 71.8017 27.145 73.2457 28.2521L73.2596 20.2781L73.8012 9.23515C72.121 9.19311 70.8297 9.24916 69.9271 9.3893C69.0523 9.50142 67.7055 9.80972 65.8865 10.3423L66.0392 16.2561L66.3725 24.3001Z" fill="#FBCF8D"/>
<path opacity="0.9882" d="M78.4665 32.0639C77.8695 30.9848 76.1754 29.5274 73.3428 27.6635C74.7869 29.9758 75.7172 31.7416 76.1199 32.9748C76.2865 33.4653 76.4254 33.9558 76.5087 34.4322L76.592 35.147C76.6198 35.6234 76.5781 36.0859 76.4809 36.5343C76.3837 36.9968 76.2171 37.4312 75.981 37.8797L75.6061 38.5383C75.3284 38.9728 74.9952 39.3932 74.6203 39.8136C73.4539 41.0608 72.0792 42.28 70.4963 43.4712L69.7326 44.0738C73.3289 42.9948 75.6339 42.0278 76.6475 41.1449C78.1333 40.0098 79.0358 38.5663 79.3691 36.8286C79.7023 35.0629 79.3968 33.4793 78.4665 32.0639Z" fill="#EF9634"/>
<path opacity="0.9882" d="M60.2766 12.6545L61.4014 20.9368C62.1928 21.3852 62.9704 21.8336 63.7619 22.2821C63.4703 18.6805 63.1787 15.0789 62.901 11.4774L60.2766 12.6545Z" fill="#EF9634"/>
<path opacity="0.9882" d="M151.74 112.882C149.324 113.317 146.158 112.854 142.256 111.481L141.617 111.256C142.381 115.194 143.131 118.165 143.839 120.169C144.492 122.173 145.811 125.214 147.783 129.306C152.462 129.979 155.864 130.189 157.961 129.923C160.03 129.755 162.751 128.9 166.125 127.358L165.375 108.328C160.154 110.822 155.6 112.336 151.74 112.882Z" fill="#FBCE8B"/>
<path opacity="0.9882" d="M179.191 101.209C177.914 104.46 176.442 106.758 174.79 108.103C171.832 110.766 168.791 112.77 165.667 114.101L165.861 117.451L166.958 118.894C170.138 122.356 173.096 124.766 175.817 126.111L176.512 125.957C179.58 125.397 181.899 124.332 183.496 122.762C184.954 121.459 186.62 118.348 188.495 113.443L179.191 101.209Z" fill="#FBCE8B"/>
<path opacity="0.9882" d="M53.445 37.9357C53.8755 37.4032 54.181 36.6885 54.3754 35.7776C54.5003 35.259 54.4587 34.5583 54.292 33.6614L51.6399 32.9327C50.7929 32.6244 50.0431 32.6384 49.3766 32.9748C48.5296 33.4933 48.0158 34.1379 47.8214 34.9087C47.6132 35.8056 47.7104 36.6604 48.1269 37.4732C48.5435 38.216 49.1822 38.7065 50.0431 38.9307C51.3761 39.267 52.5147 38.9307 53.445 37.9357Z" fill="#FFBC9A"/>
<path opacity="0.9882" d="M41.698 48.32C40.6288 47.5913 39.4902 47.5633 38.2821 48.2079C37.7267 48.6003 37.3518 49.1328 37.1297 49.8335C37.0325 50.1839 37.0186 50.4922 37.0741 50.7585C37.1574 51.0808 37.2824 51.2349 37.449 51.1789L41.2814 54.1078C42.4755 52.8886 43.0448 51.9637 43.0171 51.347C43.031 50.0998 42.6005 49.0908 41.698 48.32Z" fill="#FFBC9A"/>
<path opacity="0.9882" d="M53.1673 48.6984C53.1118 48.7825 53.1257 48.8666 53.2229 48.9647C54.2504 49.3851 55.5834 49.4972 57.2219 49.315C58.1105 49.1889 59.1242 48.7685 60.2628 48.0398C60.8182 47.6754 61.5263 46.9186 62.415 45.7835L54.4031 47.1148L53.1673 48.6984Z" fill="#FFBC9A"/>
<path opacity="0.9882" d="M95.9899 58.298C94.4348 57.6814 92.3797 57.0788 89.8387 56.5042L96.101 60.7644L103.349 68.1358L105.432 64.8004C103.21 62.8385 101.364 61.367 99.8917 60.372C98.6282 59.5172 97.3229 58.8305 95.9899 58.298Z" fill="#EF9634"/>
<path d="M38.4626 41.8036C38.3932 41.6634 38.2265 41.5933 38.0877 41.6634C37.9488 41.7335 37.8794 41.9017 37.9488 42.0418C38.0877 42.3501 38.1432 42.6444 38.1016 42.9107V42.9247C38.046 43.3871 37.9211 43.7235 37.7128 43.9617V43.9757C37.5184 44.228 37.199 44.4382 36.7686 44.6204C36.352 44.7465 36.0743 44.7745 35.9632 44.7044C35.8244 44.6204 35.6577 44.6624 35.5744 44.8025C35.4911 44.9427 35.5328 45.1108 35.6716 45.1949C35.9354 45.3491 36.3659 45.3491 36.9491 45.1669C36.963 45.1669 36.963 45.1669 36.9769 45.1529C37.4906 44.9427 37.8794 44.6624 38.1432 44.3401C38.4209 44.0178 38.6014 43.5693 38.6709 42.9947C38.6986 42.6164 38.6431 42.224 38.4626 41.8036Z" fill="#4D4038"/>
<path d="M44.6 33.6474C44.5444 33.4933 44.3778 33.4232 44.2389 33.4793C44.0862 33.5353 44.0168 33.7035 44.0723 33.8436C44.35 34.5723 44.2667 35.259 43.8363 35.9177C43.6557 36.1559 43.378 36.3521 42.9754 36.5343C42.4894 36.7165 42.1422 36.7585 41.9478 36.6744C41.7951 36.6184 41.6424 36.6884 41.5729 36.8426C41.5174 36.9968 41.5868 37.1509 41.7395 37.221C42.0867 37.3611 42.5588 37.3051 43.1836 37.0808H43.1975C43.6974 36.8706 44.0723 36.6044 44.3084 36.282L44.3222 36.268C44.836 35.4272 44.9471 34.5583 44.6 33.6474Z" fill="#4D4038"/>
<path d="M43.7391 42.7004C43.8641 42.7985 44.0446 42.7845 44.1418 42.6584C44.3778 42.3641 44.4612 41.9997 44.4195 41.5653V41.5513C44.3501 41.0748 44.1696 40.7245 43.878 40.5283C43.1837 40.0238 42.4755 40.0938 41.7813 40.7385C41.6702 40.8506 41.6563 41.0328 41.7535 41.1449C41.8507 41.257 42.0451 41.271 42.1562 41.1729C42.6283 40.7385 43.1004 40.6824 43.5447 41.0048C43.6975 41.1169 43.8085 41.3271 43.8502 41.6354C43.878 41.9157 43.8224 42.1399 43.6836 42.308C43.6003 42.4202 43.6141 42.6023 43.7391 42.7004Z" fill="#4D4038"/>
<path d="M50.8484 43.4292C49.8209 43.4432 48.9739 43.6955 48.3213 44.186H48.3074C47.5853 44.7886 47.1827 45.4892 47.1271 46.3021C47.1132 46.4562 47.2382 46.5964 47.3909 46.6104C47.5437 46.6244 47.6825 46.4983 47.6964 46.3441C47.7381 45.6995 48.0713 45.1389 48.6684 44.6344C49.2099 44.214 49.9459 44.0038 50.8484 43.9898C51.0012 43.9898 51.1261 43.8636 51.1261 43.6955C51.14 43.5553 51.015 43.4292 50.8484 43.4292Z" fill="#4D4038"/>
<path d="M68.7753 33.6348C68.8031 33.4806 68.817 33.3265 68.8309 33.1723L69.0392 32.5838L69.3169 31.1263L69.3308 29.6689L69.0947 28.2254L68.6087 26.782C67.9978 25.5207 67.6229 24.8621 67.4979 24.82L65.8733 23.783L66.151 23.1524C65.9288 22.9422 65.6234 22.7039 65.2346 22.4237C64.7902 22.0593 64.0126 21.6949 62.9157 21.3166C62.9435 18.78 62.3603 16.3276 61.1522 13.9452C59.4027 10.9743 57.2643 9.37668 54.7649 9.13845C53.1542 9.1945 51.7102 9.62893 50.4466 10.4277C50.6965 9.13845 50.516 7.66698 49.9051 6.04137C48.336 1.90726 43.9343 -0.0967316 39.0744 0.0153798C34.7005 0.113477 31.3541 1.93529 28.0077 5.25659C26.522 6.71404 25.5639 8.26958 24.7585 9.97928C22.9812 7.90522 21.1761 7.10643 19.3155 7.59691C16.3579 8.63395 15.0249 11.1284 15.3165 15.0804C15.4137 15.8371 15.5942 16.5798 15.8441 17.3226C15.3998 17.3366 14.9554 17.3786 14.4972 17.4207C8.84585 18.3456 4.56914 22.1294 1.68097 28.7579C-0.776749 35.4846 -0.526811 41.4265 2.4169 46.5837C5.48558 51.3624 9.22076 53.8008 13.6224 53.927C12.8449 55.3704 12.3727 56.996 12.2061 58.8178C12.2894 62.1111 13.3308 64.3393 15.3165 65.5165C17.3437 66.8898 19.5793 67.4084 21.9815 67.058C21.4122 67.6186 20.8567 68.2492 20.3152 68.9779C17.913 72.8878 17.3298 76.8958 18.5518 80.9738C19.8153 84.7296 22.398 87.4483 26.2859 89.158C29.9239 90.5594 33.3259 90.4893 36.4917 88.9337C36.5473 89.9007 36.7972 90.8817 37.2415 91.8486C38.3802 93.8667 39.9631 95.198 41.9904 95.8706C44.0454 96.5573 45.9199 96.3471 47.5862 95.226L47.4057 94.9177L45.2257 89.3261C44.1287 84.6595 43.5178 81.2121 43.4206 78.9698C43.2539 76.8678 43.3789 73.8548 43.8232 69.9449C44.5175 69.4824 45.1562 68.9359 45.7255 68.2912C47.9194 65.7547 48.8081 62.5035 48.3777 58.5095C47.85 55.5666 46.0866 53.0441 43.0595 50.942C41.7821 49.961 38.88 49.7368 34.3534 50.2693C34.4228 50.0031 34.4783 49.7368 34.52 49.4425C34.6866 47.6067 34.2284 45.869 33.1453 44.2293C32.9926 44.0191 32.826 43.8369 32.6455 43.6688C32.6871 43.6548 32.7288 43.6407 32.7566 43.6407C33.9646 43.1643 34.7977 42.3234 35.2976 41.1042C35.6308 40.0952 35.6308 39.1002 35.2837 38.1193C36.1029 38.0912 36.8111 37.881 37.4221 37.4746C38.4079 36.872 39.1716 36.0031 39.7132 34.882C40.0742 34.1113 40.1853 33.3265 40.0603 32.5137C40.5463 32.4997 41.06 32.4296 41.6155 32.3175C43.1845 31.9111 44.4203 31.1123 45.3229 29.9211C45.4062 29.823 45.4756 29.7109 45.545 29.5988L45.67 29.6408C49.1691 30.6358 51.974 33.0182 54.0707 36.8019C55.1399 39.0722 55.6258 40.9781 55.5148 42.4916C55.5286 43.8229 54.9732 45.5747 53.8763 47.7608C54.3623 47.957 54.876 48.1252 55.4037 48.2653C57.7781 48.966 61.6382 48.0551 66.9841 45.5326C70.3861 43.893 73.5103 41.3004 76.3707 37.7549L75.9958 37.6288L76.4818 37.4746C74.2045 34.4056 71.608 33.1163 68.7753 33.6348Z" fill="#D09D4F"/>
<path d="M89.8249 56.7984C91.9771 58.1718 94.1016 59.5311 96.2677 61.423C98.4338 63.3149 100.628 65.7113 102.849 68.1357C102.947 68.2338 103.099 68.2478 103.197 68.1497C103.294 68.0516 103.308 67.8974 103.21 67.7993C101.003 65.3749 98.781 62.9505 96.5871 61.0446C94.3932 59.1387 92.227 57.7514 90.0887 56.378V56.392C90.047 56.364 90.0054 56.35 89.9498 56.35C89.811 56.35 89.6999 56.4621 89.6999 56.6022C89.7138 56.6723 89.7554 56.7564 89.8249 56.7984Z" fill="#D09D4F"/>
<path d="M105.099 85.4149C105.043 85.2888 104.904 85.2327 104.779 85.2888C100.072 87.3068 95.4068 89.2967 91.505 90.0815C89.9498 90.3898 88.5196 90.5019 87.1588 90.5019C85.1177 90.5019 83.2292 90.2357 81.3269 89.9694C81.1881 89.9554 81.0631 90.0395 81.0492 90.1796C81.0353 90.3198 81.1187 90.4459 81.2575 90.4599C83.1598 90.7262 85.076 90.9924 87.1588 90.9924C88.5474 90.9924 90.0053 90.8803 91.6022 90.558C95.5595 89.7732 100.281 87.7412 104.96 85.7372C105.099 85.6811 105.154 85.541 105.099 85.4149Z" fill="#D09D4F"/>
<path d="M141.645 92.4499C141.479 92.4359 141.326 92.562 141.298 92.7302L140.812 97.2287C140.798 97.3968 140.923 97.551 141.09 97.579C141.256 97.593 141.409 97.4669 141.437 97.2987L141.923 92.8003C141.937 92.6181 141.812 92.4639 141.645 92.4499Z" fill="#4D4038"/>
<path d="M163.112 81.4349C162.779 79.7532 162.237 78.1276 161.696 76.53C161.64 76.3618 161.46 76.2778 161.307 76.3338C161.14 76.3899 161.057 76.5721 161.113 76.7262C161.654 78.3378 162.182 79.9214 162.501 81.547C162.82 83.1726 162.945 84.8543 163.07 86.564C163.084 86.7322 163.237 86.8723 163.404 86.8583C163.57 86.8443 163.709 86.6901 163.695 86.522C163.57 84.8263 163.445 83.1025 163.112 81.4349Z" fill="#4D4038"/>
<path opacity="0.9882" d="M65.8447 10.3143L65.0394 10.4684C61.5402 11.085 58.6104 11.7577 56.236 12.4864C54.1254 13.1171 51.0151 14.3643 46.905 16.2422C47.8631 17.041 48.5574 17.7697 48.9739 18.4423C49.4044 19.073 49.9876 20.2782 50.7235 22.086C55.8333 22.3662 59.2075 22.6185 60.8598 22.8287C62.665 23.0249 64.4562 23.4033 66.2196 23.9498L65.8447 10.3143Z" fill="#FFA959"/>
<g opacity="0.9882">
<path opacity="0.9882" d="M49.7931 19.6895C49.7654 19.6194 49.7376 19.5354 49.682 19.4233C49.6543 19.2271 49.5987 19.0309 49.4876 18.8347C49.2099 18.4142 48.8906 18.0359 48.5573 17.6995C48.4879 17.6155 48.4185 17.5174 48.3352 17.4193C47.988 16.9988 47.7242 16.7466 47.5159 16.6905C47.4187 16.6765 47.3354 16.7045 47.2521 16.7466C47.2104 16.7466 47.1549 16.7606 47.0993 16.7886C46.0996 17.2791 45.2942 17.6295 44.6555 17.8257C44.239 17.9798 43.1003 18.2321 41.2258 18.5964C40.6843 18.7366 40.2955 18.8907 40.0594 19.0168C39.6984 19.157 38.9764 19.7175 37.8794 20.6985C37.3657 21.147 36.9769 21.5253 36.6853 21.8196C36.5603 21.8897 36.3243 22.0719 35.9771 22.3662C35.2551 23.0388 34.7552 23.4873 34.4914 23.6835C34.2414 23.8937 33.7416 24.2581 32.9779 24.7906C32.8807 24.8607 32.8112 24.9167 32.7557 25.0008C32.478 25.3932 32.603 25.8136 33.1028 26.262C33.5333 26.5563 34.1581 26.4302 34.9774 25.8697C35.0468 25.8276 35.1162 25.7856 35.1857 25.7435C35.1995 26.3461 35.2134 27.3832 35.2134 28.8546C35.2273 29.5974 35.2551 30.2981 35.3106 30.9287C35.3523 31.3631 35.5328 31.4752 35.8522 31.265C36.116 31.0688 36.3243 30.6204 36.4492 29.8917C36.4909 29.5834 36.5187 29.275 36.5464 28.9527C36.5603 28.5043 36.5742 28.1119 36.5881 27.7615C36.6714 27.229 36.7686 26.6124 36.8797 25.8977C37.0324 25.3091 37.2407 24.8046 37.5045 24.3842C37.5878 24.244 37.685 24.1039 37.7961 23.9638C37.81 23.9638 37.81 23.9638 37.8239 23.9638C37.8378 23.9638 37.8517 23.9638 37.8794 23.9638C37.3518 25.1129 37.1574 26.178 37.2962 27.1309C37.2546 27.173 37.4629 28.9107 37.9072 32.3301C37.9905 32.6384 38.171 32.7085 38.4487 32.5543C38.7264 32.3861 38.9208 32.0078 39.0319 31.3911C39.0736 31.1109 39.1152 30.8026 39.1291 30.4382C39.1985 27.9577 39.268 26.6685 39.3235 26.5563C39.3929 25.9117 39.5318 25.3511 39.7262 24.8607C39.6845 25.1409 39.6706 25.4492 39.6568 25.7996C39.629 26.3041 39.6706 27.0749 39.8095 28.1259C39.8234 28.196 39.8234 28.266 39.8373 28.3361C39.8512 28.9247 39.865 29.5834 39.9067 30.2981C39.9622 31.4472 40.115 31.9517 40.351 31.7976C40.7676 31.5313 41.0314 31.1109 41.1425 30.5503C41.1842 30.3962 41.198 30.186 41.2119 29.9337C41.1703 28.4903 41.1703 27.4672 41.2119 26.8927C41.2397 26.7105 41.2675 26.5143 41.3091 26.2901C41.3369 26.1499 41.3647 26.0098 41.3924 25.8837C41.4896 25.4913 41.6007 25.1269 41.7535 24.7906C41.8645 24.5383 42.0034 24.2581 42.1839 23.9638C42.1422 24.202 42.1145 24.4262 42.0867 24.6084C41.9617 25.0288 41.809 25.8276 41.6563 27.0188C41.4896 27.7756 41.7535 27.9297 42.4616 27.5093C42.6977 27.3692 42.8921 27.1449 43.0587 26.8086C43.8779 24.6504 44.35 23.6134 44.4611 23.6555C44.5861 23.5013 44.7527 23.3752 44.961 23.2911L47.1549 22.5624C47.3771 22.4783 47.5715 22.3662 47.7381 22.226C48.0852 21.9177 48.4185 21.4413 48.7378 20.8106C48.96 20.7125 49.1266 20.6285 49.2516 20.5444L49.5848 20.4323C49.5987 20.4182 49.6265 20.4182 49.6404 20.4042C49.7792 20.4042 49.8764 20.3622 49.9459 20.2921C49.9459 20.18 49.9042 19.9698 49.7931 19.6895ZM40.8092 23.1369H40.837L40.7815 23.179C40.7815 23.165 40.7954 23.151 40.8092 23.1369Z" fill="#FFECE8"/>
</g>
</svg>
