<svg width="216" height="175" viewBox="0 0 216 175" fill="none" xmlns="http://www.w3.org/2000/svg">
<path opacity="0.9961" d="M24.7189 137.558C28.7331 135.89 32.7341 134.209 36.7483 132.542L7.52661 134.143L24.7189 137.558Z" fill="#4E4139"/>
<path opacity="0.9961" d="M18.6844 128.519L19.1862 133.111C19.3446 133.759 19.5427 134.236 19.7672 134.527C20.0313 134.898 20.4406 135.175 20.9952 135.374C21.6819 135.599 22.5401 135.692 23.5701 135.639C24.2964 135.599 24.8774 135.414 25.3395 135.096C25.5904 134.898 25.7753 134.659 25.8941 134.381C26.0658 133.971 26.1714 133.521 26.2242 133.045L26.3827 128.32L18.6844 128.519Z" fill="#9291D8"/>
<path d="M26.3695 165.059L22.0516 74.1785C22.0384 73.9799 21.8799 73.8344 21.6818 73.8476C21.4838 73.8608 21.3385 74.0197 21.3517 74.2182L21.4046 75.2504C21.2329 75.224 21.0612 75.3431 21.0216 75.5151L0.0263881 163.51C0.0263881 163.537 0.0131836 163.563 0.0131836 163.59C0.0131836 163.775 0.145229 163.921 0.330093 163.947C0.501752 163.973 0.673411 163.854 0.713025 163.682L21.4838 76.6665L25.6828 165.112C25.696 165.31 25.8545 165.456 26.0393 165.456C26.2374 165.456 26.3827 165.297 26.3827 165.098C26.3695 165.072 26.3695 165.059 26.3695 165.059Z" fill="#4E4139"/>
<path d="M44.3541 164.741L23.0815 74.1784C23.0419 73.9931 22.8438 73.874 22.659 73.9137C22.4741 73.9534 22.3553 74.152 22.3949 74.3372L43.6542 164.9C43.6938 165.072 43.8655 165.191 44.0371 165.164C44.222 165.138 44.3541 164.992 44.3541 164.807C44.3541 164.794 44.3541 164.767 44.3541 164.741Z" fill="#4E4139"/>
<path opacity="0.9961" d="M9.89022 49.9464C8.46413 54.5784 7.48699 58.5619 6.9324 61.9102C6.29858 65.5761 5.65156 70.8169 4.97813 77.6194L4.81967 79.1678L40.1286 79.8427C38.4913 66.0526 36.7351 56.193 34.8468 50.2772L9.89022 49.9464Z" fill="#FCCC5D"/>
<path d="M210.573 69.1362C210.15 68.3686 209.147 67.998 207.589 68.0377L176.452 67.7201C175.317 67.7201 174.498 67.998 174.023 68.5274C173.666 69.07 173.561 69.9964 173.732 71.3198L173.204 149.588L210.428 149.574L210.771 72.683L210.863 70.8699C210.877 70.1817 210.771 69.5994 210.573 69.1362Z" fill="#D09D4F"/>
<path opacity="0.9961" d="M182.962 85.0836C183.279 85.8247 183.675 86.4996 184.151 87.1217C185.656 89.0539 187.663 90.2185 190.159 90.6155C192.786 90.8935 195.071 90.2847 196.999 88.7892C198.927 87.2805 200.089 85.2689 200.485 82.7676L200.564 81.5235C200.498 78.9164 199.6 76.7592 197.883 75.0255C196.154 73.2918 194.001 72.4051 191.4 72.3389C188.799 72.4051 186.646 73.305 184.916 75.0255C183.187 76.7592 182.302 78.9164 182.236 81.5235C182.236 82.3705 182.342 83.1911 182.566 83.9719L182.962 85.0836Z" fill="#FFA959"/>
<path opacity="0.9961" d="M203.931 100.621C200.815 97.4974 196.919 95.8828 192.219 95.7637C187.531 95.8828 183.622 97.4974 180.506 100.621C177.39 103.744 175.779 107.648 175.66 112.36C175.66 113.895 175.858 115.364 176.254 116.767L176.967 118.818C177.535 120.141 178.248 121.372 179.12 122.497C181.84 125.978 185.458 128.082 189.987 128.797C194.727 129.313 198.847 128.214 202.36 125.488C205.832 122.762 207.932 119.136 208.645 114.596L208.79 112.346C208.658 107.661 207.047 103.744 203.931 100.621Z" fill="#FFA959"/>
<path opacity="0.9961" d="M206.902 132.383C206.163 131.642 205.225 131.258 204.116 131.232C202.994 131.258 202.069 131.642 201.33 132.383C200.59 133.124 200.207 134.064 200.181 135.176C200.181 135.546 200.234 135.89 200.326 136.221L200.498 136.711C200.63 137.028 200.802 137.319 201.013 137.584C201.66 138.418 202.518 138.908 203.601 139.08C204.737 139.199 205.714 138.934 206.546 138.299C207.377 137.65 207.866 136.79 208.038 135.705L208.077 135.162C208.024 134.051 207.642 133.124 206.902 132.383Z" fill="#F5F7E9"/>
<path opacity="0.9961" d="M180.797 131.96C179.674 131.986 178.75 132.37 178.011 133.111C177.271 133.852 176.888 134.792 176.862 135.903C176.862 136.274 176.915 136.618 177.007 136.949L177.179 137.439C177.311 137.756 177.482 138.047 177.694 138.312C178.341 139.146 179.199 139.636 180.282 139.808C181.417 139.927 182.394 139.662 183.226 139.027C184.058 138.378 184.547 137.518 184.718 136.433L184.758 135.89C184.732 134.765 184.349 133.839 183.609 133.098C182.87 132.357 181.906 131.986 180.797 131.96Z" fill="#F5F7E9"/>
<path opacity="0.9961" d="M177.298 144.122C177.258 144.029 177.205 143.937 177.139 143.857C176.941 143.606 176.677 143.46 176.36 143.407C176.017 143.368 175.726 143.447 175.462 143.646C175.211 143.844 175.066 144.109 175.013 144.426C174.974 144.77 175.053 145.062 175.251 145.326C175.449 145.578 175.713 145.723 176.03 145.776C176.373 145.816 176.664 145.737 176.928 145.538C177.179 145.339 177.324 145.075 177.377 144.757L177.39 144.598C177.39 144.492 177.377 144.387 177.35 144.281L177.298 144.122Z" fill="#FCCC5D"/>
<path opacity="0.9961" d="M207.972 143.54C207.747 143.315 207.47 143.196 207.127 143.182C206.783 143.196 206.506 143.301 206.282 143.54C206.057 143.765 205.938 144.043 205.925 144.387C205.925 144.493 205.938 144.598 205.965 144.704L206.017 144.85C206.057 144.942 206.11 145.035 206.176 145.115C206.374 145.366 206.638 145.512 206.955 145.565C207.298 145.604 207.589 145.525 207.853 145.326C208.104 145.128 208.249 144.863 208.302 144.545L208.315 144.387C208.315 144.043 208.196 143.765 207.972 143.54Z" fill="#FCCC5D"/>
<path opacity="0.9961" d="M205.938 112.068C205.846 108.177 204.499 104.935 201.924 102.341C199.336 99.7472 196.101 98.4105 192.219 98.3179C188.337 98.4105 185.101 99.7604 182.513 102.341C179.925 104.935 178.592 108.177 178.499 112.068C178.499 113.339 178.671 114.556 178.988 115.721L179.582 117.415C180.044 118.513 180.638 119.533 181.365 120.472C183.609 123.357 186.62 125.104 190.37 125.7C194.305 126.123 197.725 125.21 200.617 122.96C203.495 120.71 205.238 117.693 205.833 113.934L205.938 112.068Z" fill="#D09D4F"/>
<path opacity="0.9961" d="M184.692 84.3028C184.943 84.8851 185.247 85.4144 185.63 85.9041C186.805 87.4261 188.389 88.3392 190.357 88.6436C192.417 88.8686 194.213 88.3922 195.744 87.2011C197.263 86.0232 198.174 84.4351 198.478 82.4632L198.544 81.4838C198.491 79.4325 197.791 77.7385 196.431 76.3754C195.071 75.0122 193.381 74.3108 191.334 74.2579C189.287 74.3108 187.597 75.0122 186.237 76.3754C184.877 77.7385 184.177 79.4325 184.124 81.4838C184.124 82.1456 184.217 82.794 184.375 83.4028L184.692 84.3028Z" fill="#D09D4F"/>
<path opacity="0.9961" d="M182.196 135.281C182.13 135.149 182.064 135.03 181.972 134.924C181.681 134.593 181.325 134.408 180.876 134.355C180.401 134.329 180.004 134.461 179.674 134.739C179.344 135.03 179.159 135.387 179.107 135.837C179.08 136.314 179.212 136.711 179.489 137.042C179.78 137.372 180.136 137.558 180.585 137.611C181.061 137.637 181.457 137.505 181.787 137.227C182.117 136.936 182.302 136.578 182.355 136.128V135.903C182.342 135.758 182.315 135.612 182.276 135.467L182.196 135.281Z" fill="#D09D4F"/>
<path opacity="0.9961" d="M205.687 134.461C205.621 134.329 205.555 134.209 205.463 134.104C205.172 133.773 204.816 133.587 204.367 133.534C203.891 133.508 203.495 133.64 203.165 133.918C202.835 134.209 202.65 134.567 202.597 135.017C202.571 135.493 202.703 135.89 202.98 136.221C203.271 136.552 203.627 136.737 204.076 136.79C204.552 136.817 204.948 136.684 205.278 136.406C205.608 136.115 205.793 135.758 205.846 135.308V135.083C205.832 134.937 205.806 134.792 205.766 134.646L205.687 134.461Z" fill="#D09D4F"/>
<path opacity="0.9961" d="M194.239 110.321C193.605 109.686 192.813 109.355 191.862 109.329C190.911 109.355 190.119 109.686 189.485 110.321C188.851 110.957 188.521 111.751 188.495 112.704C188.495 113.021 188.534 113.312 188.614 113.604L188.759 114.014C188.878 114.278 189.023 114.53 189.195 114.768C189.749 115.483 190.489 115.906 191.4 116.052C192.364 116.158 193.209 115.933 193.922 115.377C194.635 114.821 195.058 114.08 195.203 113.167L195.229 112.704C195.203 111.751 194.873 110.957 194.239 110.321Z" fill="#FCCC5D"/>
<path opacity="0.9961" d="M189.208 82.3705C189.287 82.5425 189.38 82.7146 189.498 82.8602C189.855 83.3234 190.344 83.6013 190.951 83.7072C191.585 83.7733 192.139 83.6278 192.601 83.2704C193.064 82.9131 193.341 82.4234 193.447 81.8147L193.473 81.5103C193.46 80.8883 193.235 80.3589 192.826 79.9486C192.403 79.5251 191.888 79.3134 191.268 79.3001C190.647 79.3134 190.119 79.5384 189.71 79.9486C189.287 80.3721 189.076 80.8883 189.063 81.5103C189.063 81.7088 189.089 81.9073 189.142 82.1058L189.208 82.3705Z" fill="#FCCC5D"/>
<path opacity="0.9961" d="M102.124 51.5345L139.374 51.6801C139.387 34.449 139.4 17.2311 139.414 0C126.737 0.211749 114.061 0.436733 101.385 0.648483C101.635 17.6149 101.873 34.5813 102.124 51.5345Z" fill="#F48349"/>
<path opacity="0.9961" d="M142.411 0.648483L143.217 51.5345L184.745 51.6801L184.798 0L142.411 0.648483Z" fill="#FCCC5D"/>
<path opacity="0.9961" d="M128.942 12.03C126.064 7.83473 123.264 5.50549 120.571 5.05552C118.432 4.52615 115.104 5.47902 110.601 7.91414L110.086 8.33764C106.521 10.9713 104.659 14.2269 104.514 18.1046C104.395 19.9177 104.725 21.8896 105.478 24.0071C105.768 25.0658 106.746 26.8525 108.436 29.367C111.882 33.9461 115.368 37.0032 118.867 38.5119C121.363 39.5574 124.189 40.1795 127.371 40.378C129.774 40.4574 131.346 40.0736 132.085 39.2134C134.185 36.8576 134.898 32.7815 134.237 27.0113C133.63 21.3205 131.861 16.3312 128.942 12.03Z" fill="white"/>
<path opacity="0.9961" d="M122.736 40.9338C120.175 40.4441 117.164 38.8957 113.718 36.2886C111.328 34.5152 108.832 31.683 106.244 27.7789C104.804 27.4877 103.444 27.4083 102.177 27.5274L101.82 27.5539L102.15 51.5477L124.875 51.6404C124.915 49.192 124.796 47.3657 124.532 46.1878C124.321 44.9703 123.727 43.2366 122.736 40.9338Z" fill="white"/>
<path opacity="0.9961" d="M113.625 0.60879L114.338 1.00582C115.751 1.81311 117.217 2.56747 118.735 3.25566C119.752 3.70563 120.822 4.08942 121.944 4.42028C122.512 4.57909 123.08 4.71143 123.674 4.83054L124.572 4.98936C125.179 5.082 125.787 5.1614 126.394 5.22757C127.001 5.28051 127.622 5.33345 128.216 5.34668C128.533 5.37315 129.418 5.37315 130.844 5.34668C132.653 5.26728 134.185 5.06876 135.452 4.72467C136.694 4.38058 137.961 3.87767 139.229 3.20272L139.4 0.052948L113.625 0.60879Z" fill="white"/>
<path opacity="0.9961" d="M107.142 27.673C107.736 28.5729 108.106 28.9699 108.238 28.8773C108.29 28.8508 108.356 28.7846 108.409 28.6788C108.423 28.6788 108.449 28.6788 108.462 28.6655C108.515 28.6523 108.568 28.6126 108.607 28.5464L109.386 26.5083C109.479 26.3495 109.769 26.1642 110.258 25.9525C110.35 25.8863 110.443 25.7672 110.522 25.5952C110.614 25.3834 110.654 24.8276 110.641 23.9276C110.68 23.6894 110.747 23.5306 110.813 23.4512L112.212 22.4322C112.437 22.2072 112.767 21.466 113.203 20.222C114.034 19.7588 114.576 19.3883 114.8 19.1368C114.959 19.0045 115.395 18.1972 116.121 16.7149C116.292 16.4767 116.794 16.1194 117.626 15.6429C117.956 15.0739 118.26 14.6504 118.537 14.346C118.498 14.2401 119.197 13.9622 120.624 13.5122C121.574 12.6387 122.248 12.1226 122.604 11.9903L124.176 11.7388C124.981 11.2094 125.602 10.9447 126.051 10.9315C126.552 10.8653 127.292 10.9183 128.269 11.1168C128.229 11.0506 128.177 10.9977 128.124 10.9315L128.163 10.905L128.19 10.8389L128.177 10.733L128.124 10.6007C128.031 10.4154 127.833 10.1375 127.543 9.79336C127.265 9.48897 126.988 9.19781 126.724 8.94636L126.328 8.5758C126.077 8.33758 125.826 8.12583 125.588 7.94055C125.245 7.67587 124.915 7.45088 124.611 7.29207C124.572 7.25237 124.532 7.21266 124.506 7.17296C124.374 7.05385 124.215 7.00092 124.057 7.00092H124.017C123.885 7.00092 123.74 7.06709 123.581 7.17296L123.423 7.29207L123.225 7.45088C122.855 7.37148 122.538 7.33177 122.287 7.30531H122.248C122.182 7.30531 122.129 7.31854 122.076 7.33177L120.822 8.05966C119.528 8.31111 118.788 8.5361 118.603 8.73461C118.445 8.81402 117.969 9.33016 117.151 10.2963C115.83 10.8918 115.157 11.2624 115.117 11.3947C114.893 11.5535 114.457 12.1755 113.784 13.2343C113.546 13.4593 113.031 13.7901 112.239 14.2533C112.133 14.3327 112.027 14.4254 111.935 14.5313C111.75 14.7298 111.578 15.0077 111.42 15.365C111.103 16.5164 110.879 17.1384 110.773 17.2443C110.654 17.4031 110.535 17.5222 110.43 17.6016C110.218 17.7604 109.835 17.9722 109.32 18.2236C109.241 18.2766 109.136 18.3692 109.03 18.5148C109.004 18.5413 108.977 18.581 108.964 18.6207L108.211 21.0955C107.472 21.7572 106.891 22.4189 106.442 23.1071C105.993 24.2188 105.874 24.9599 106.085 25.3172H105.98L105.953 25.3305C105.887 25.3569 105.927 25.5158 106.046 25.7672C106.495 26.5877 106.864 27.223 107.142 27.673Z" fill="#D09D4F"/>
<path opacity="0.9961" d="M127.833 24.3909C127.939 24.338 128.414 24.3115 129.246 24.3115C129.867 23.9542 130.303 23.7821 130.54 23.7954C130.593 23.7424 131.412 23.9674 132.983 24.4703C133.406 24.4835 133.683 24.4041 133.841 24.2188C133.709 23.3454 133.419 22.366 132.97 21.2808C132.785 20.2883 132.455 19.0707 131.98 17.6414L129.642 17.1252H129.563C129.312 17.1517 128.903 17.3105 128.309 17.5884C127.701 17.5355 127.345 17.5223 127.252 17.5487L126.222 18.3957C125.417 18.5016 124.783 18.6207 124.334 18.7795C124.136 18.7795 123.7 19.2692 123.014 20.275C122.036 20.672 121.416 20.9897 121.152 21.2411C120.941 21.4396 120.769 21.6514 120.65 21.8764C120.227 22.8954 119.937 23.5042 119.779 23.7159C118.498 24.7747 117.864 25.3438 117.864 25.4099L116.821 27.7789C116.002 28.4406 115.408 28.9832 115.038 29.3935L114.985 29.4861L114.417 32.0403C113.902 32.7021 113.546 33.2314 113.335 33.6152C113.255 33.999 113.216 34.3563 113.229 34.7137C113.242 34.9122 113.295 35.071 113.374 35.1901L115.817 36.8841C115.844 36.8709 115.87 36.8576 115.896 36.8312C116.623 37.3341 117.441 37.7708 118.352 38.1281C118.458 38.0223 118.537 37.8899 118.564 37.7179C118.603 36.6988 118.656 36.1298 118.722 35.9974L119.858 34.5019L120.267 32.8741C120.901 32.2521 121.271 31.8551 121.376 31.6698L122.182 29.5391C122.261 29.4067 122.736 29.0097 123.608 28.3612C124.07 27.3819 124.387 26.8128 124.559 26.6804C124.545 26.601 125.074 26.3231 126.156 25.8599C126.83 24.8673 127.398 24.3777 127.833 24.3909Z" fill="#D09D4F"/>
<path opacity="0.9961" d="M134.383 32.4506C134.013 32.2521 133.643 32.1462 133.274 32.133H133.141C132.811 32.133 132.455 32.2256 132.059 32.3977C131.861 32.4903 131.57 32.7285 131.187 33.1123L130.91 33.2711C130.844 33.3108 130.461 33.3638 129.748 33.4432C129.589 33.4696 129.457 33.5358 129.352 33.6152C129.286 33.6681 129.233 33.7211 129.18 33.8005C128.995 34.224 128.85 34.4754 128.731 34.5813C128.744 34.621 128.348 34.8592 127.543 35.3092C127.411 35.3886 127.279 35.5077 127.16 35.6533C127.081 35.7459 126.988 35.8783 126.896 36.09C126.645 36.8973 126.473 37.4002 126.354 37.5723C126.275 37.7179 125.958 37.9958 125.39 38.4193C125.324 38.4854 125.258 38.5649 125.219 38.631C125.034 38.8295 125.047 39.3986 125.272 40.3647C127.358 40.4177 128.361 40.4309 128.295 40.4177C129.55 40.378 130.448 40.2192 130.989 39.928C131.2 39.8221 131.385 39.7162 131.57 39.5971L131.834 39.4119C132.006 39.2927 132.151 39.1604 132.296 39.0281C132.534 38.8163 132.811 38.459 133.128 37.9561C133.855 36.8576 134.317 35.243 134.541 33.1388C134.528 32.755 134.488 32.5168 134.383 32.4506Z" fill="#D09D4F"/>
<path opacity="0.9961" d="M118.498 39.5177L118.366 39.6633C118.022 40.0206 117.745 40.2324 117.534 40.2986C117.375 40.3515 117.23 40.378 117.085 40.378C116.2 40.2853 115.579 40.2986 115.236 40.3912C115.038 40.4574 114.549 40.775 113.784 41.3441L112.41 41.7014C112.252 41.7808 111.71 42.2969 110.813 43.2631C110.575 43.4219 110.1 43.6071 109.4 43.8189C109.268 43.8718 109.136 43.9645 108.99 44.0703C108.872 44.163 108.607 44.5997 108.172 45.3805C107.049 45.9761 106.402 46.4261 106.217 46.7437L105.531 48.398C104.923 49.0994 104.58 49.5626 104.501 49.8141C104.329 50.3037 104.329 50.9919 104.501 51.8918L111.38 51.7198C111.42 51.3625 111.526 51.0448 111.684 50.7405C111.737 50.6478 112.041 50.4228 112.582 50.092C112.899 49.4435 113.11 49.0729 113.216 49.0068C113.387 48.9009 113.533 48.8347 113.652 48.8082C114.47 48.7288 114.998 48.6494 115.249 48.5436L117.072 47.2995C117.27 47.1804 118.062 47.1937 119.435 47.3128L121.297 46.704C121.931 46.6113 122.367 46.5584 122.591 46.5452C123.027 46.5055 123.515 46.4922 124.057 46.5319C124.11 46.5319 124.162 46.5055 124.189 46.4922L123.146 41.9529L118.498 39.5177Z" fill="#D09D4F"/>
<path opacity="0.9961" d="M106.072 35.3622C106.204 35.2695 106.561 35.0975 107.155 34.8593C107.828 34.224 108.304 33.8534 108.594 33.7608C109.056 33.6152 109.479 33.5226 109.835 33.4961C110.086 33.4829 110.39 33.5226 110.773 33.6152C110.905 33.6152 110.971 33.602 110.984 33.5623C110.548 33.1917 110.113 32.8212 109.717 32.4241L109.122 31.8154C108.739 31.4051 108.37 30.9684 108.013 30.5184C107.313 29.6185 106.68 28.6391 106.125 27.5671L104.461 27.6598C104.25 27.6862 104.105 27.7392 104.052 27.8054C103.933 27.9642 103.801 28.1892 103.682 28.4671L103.22 28.8509C103.062 29.2611 102.956 29.4993 102.89 29.5655C102.388 29.9493 102.045 30.3463 101.847 30.7434L101.886 39.8089C101.939 39.5574 102.045 39.3457 102.203 39.1472C102.296 39.0148 102.626 38.7369 103.167 38.3134L103.973 37.215C104.039 37.1223 104.461 36.8312 105.24 36.3283C105.676 35.7592 105.953 35.4283 106.072 35.3622Z" fill="#D09D4F"/>
<path opacity="0.9961" d="M121.654 4.02323L121.588 4.15557L121.68 4.22175C121.812 4.31439 122.023 4.40703 122.327 4.49967C122.617 4.59231 122.987 4.69818 123.436 4.80406L126.024 5.3202C126.064 5.3202 126.103 5.3202 126.117 5.30696C126.262 5.21432 126.341 5.16138 126.354 5.13491C126.434 5.08198 126.513 4.98934 126.579 4.87023C126.632 4.24821 126.684 3.87765 126.737 3.77178C126.79 3.57326 126.882 3.40122 127.015 3.28211C127.081 3.21594 127.16 3.14976 127.279 3.08359C127.675 2.92478 127.912 2.81891 127.992 2.76597C128.282 2.48805 128.48 2.316 128.586 2.24983C129.061 1.98514 129.339 1.8131 129.405 1.76016C129.523 1.65428 129.616 1.54841 129.669 1.44253C129.748 1.12491 129.774 0.886693 129.748 0.714646C129.735 0.5426 129.695 0.410256 129.616 0.317616C129.576 0.264679 129.537 0.23821 129.457 0.251444C129.233 0.23821 128.942 0.224976 128.612 0.224976L123.964 0.264679C123.898 0.277913 123.806 0.344085 123.7 0.463194C123.397 0.952864 123.212 1.23079 123.146 1.28372C123.014 1.40283 122.736 1.57488 122.287 1.79986C122.208 1.8528 122.142 1.91897 122.089 1.99838L121.772 2.7792C121.535 3.13653 121.416 3.34828 121.403 3.40122C121.363 3.50709 121.376 3.65267 121.416 3.83795C121.429 3.91736 121.508 3.98353 121.654 4.02323Z" fill="#D09D4F"/>
<path opacity="0.9961" d="M142.636 36.7518L153.582 51.4948C154.48 51.5477 155.365 51.6007 156.263 51.6536C151.707 45.7114 147.152 39.7824 142.583 33.8402L142.636 36.7518Z" fill="#D09D4F"/>
<path opacity="0.9961" d="M150.334 0.410248L147.64 0.423482L153.133 7.70237L158.626 14.9813C159.603 14.9945 160.594 14.9945 161.571 15.0077C157.821 10.1507 154.084 5.28048 150.334 0.410248Z" fill="#D09D4F"/>
<path opacity="0.9961" d="M166.509 21.6778C166.76 19.5736 166.787 17.6149 166.615 15.8018L166.562 15.1136C164.119 14.3857 162.152 13.9754 160.633 13.8828C158.904 13.7637 156.949 14.2666 154.757 15.3518L154.322 15.5503C153.093 17.8134 152.222 20.0897 151.694 22.3792C151.1 25.4628 150.928 28.1891 151.152 30.5713C151.245 31.855 151.443 33.0726 151.747 34.2107L151.998 35.0445C152.182 35.5871 152.38 36.1033 152.618 36.5929C153.424 38.3266 154.744 40.2853 156.58 42.469C158.402 39.8883 159.907 37.5061 161.109 35.3092C162.838 32.1462 164.159 29.3802 165.057 26.998C165.809 25.0526 166.298 23.2792 166.509 21.6778Z" fill="#9291D8"/>
<path opacity="0.9961" d="M175.937 51.6404H177.997L176.452 43.3689C176.056 35.9709 175.541 31.0477 174.894 28.5862C174.709 27.7259 174.485 26.9054 174.234 26.1378C174.142 25.7011 173.706 24.6423 172.914 22.9483C172.451 21.9293 171.501 20.4735 170.061 18.5942C169.216 17.5487 168.358 16.5429 167.473 15.5636C167.222 19.8515 166.8 23.0013 166.232 24.9997C165.625 27.2495 164.555 29.8964 163.01 32.927L162.667 33.6284C164.753 37.0032 166.628 39.8353 168.266 42.1249C169.916 44.4144 172.121 47.1804 174.881 50.3963L175.937 51.6404Z" fill="#9291D8"/>
<path opacity="0.9961" d="M184.824 15.2724C184.652 12.7843 184.137 10.3757 183.253 8.00675C182.725 6.5245 181.563 4.64522 179.767 2.38215C179.146 1.65426 178.539 0.966077 177.931 0.317595L167.632 0.11908C167.011 3.14974 166.721 5.45252 166.76 7.04064C166.734 8.61553 167.038 11.0506 167.658 14.3592L168.226 15.0474C172.095 19.6265 174.313 23.2924 174.881 26.0584C175.224 27.2098 175.581 28.8111 175.937 30.8889L177.773 46.6378L180.757 51.6007L184.441 51.6404L184.56 37.7311C184.864 31.3521 185.022 26.6275 185.049 23.5439C185.062 19.2956 184.983 16.5429 184.824 15.2724Z" fill="#9291D8"/>
<path opacity="0.9961" d="M162.099 32.6491C161.267 32.3712 160.845 32.2124 160.805 32.1727C160.369 31.8286 159.999 31.5639 159.696 31.3654C159.418 31.2198 159.141 31.1404 158.851 31.114H158.771C158.547 31.1272 158.177 31.2066 157.649 31.3522C156.91 31.1934 156.461 31.1404 156.302 31.1801C156.183 31.1537 155.589 31.3389 154.52 31.7624C154.361 31.7889 154.071 31.7889 153.661 31.7624C153.622 31.7624 153.556 31.7757 153.49 31.8021C153.358 31.7889 152.948 32.1198 152.262 32.7815L151.615 33.0859C151.509 33.1917 151.456 33.2976 151.456 33.4035C151.562 34.052 151.747 34.6872 152.011 35.3225C152.143 35.6401 152.288 35.9577 152.46 36.2621C152.512 36.4077 152.816 36.8841 153.358 37.7046L153.807 37.2944C153.873 37.2679 153.925 37.2679 153.965 37.2679C154.361 37.3473 154.599 37.3606 154.678 37.3209C154.77 37.2944 154.982 37.1488 155.312 36.9106C155.431 36.8576 155.536 36.8312 155.655 36.8312C155.708 36.8047 156.051 36.9106 156.712 37.1223C156.923 37.162 157.121 37.1885 157.293 37.1885C157.425 37.215 157.847 37.1091 158.587 36.8841C158.705 36.8709 158.798 36.8577 158.877 36.8709C159.009 36.8841 159.141 36.9503 159.286 37.0429C159.418 37.1223 159.577 37.2679 159.775 37.4797C159.841 37.5194 159.881 37.5326 159.907 37.5326C159.92 37.5326 159.933 37.5326 159.947 37.5194L162.416 33.1785C162.442 33.1256 162.456 33.0726 162.456 33.0197C162.416 32.8609 162.297 32.7418 162.099 32.6491Z" fill="white"/>
<path opacity="0.9961" d="M164.582 25.926C164.872 26.1246 165.149 26.2569 165.4 26.3231C165.717 25.3967 166.047 24.0732 166.391 22.3792C166.655 20.7779 166.734 19.7721 166.589 19.3751C165.849 19.6133 165.347 19.7191 165.11 19.6927C164.938 19.6662 164.793 19.6397 164.687 19.5868C164.067 19.3089 163.684 19.1501 163.525 19.1104C163.367 19.0839 163.195 19.0707 163.023 19.0707C162.297 19.1765 161.875 19.2162 161.729 19.1765C161.545 19.1368 161.109 18.9913 160.435 18.7133C160.211 18.6472 160 18.6207 159.801 18.6207H159.735C159.577 18.6207 159.419 18.6472 159.273 18.6736C158.441 18.9648 157.953 19.0971 157.808 19.0839C157.662 19.0971 157.227 19.031 156.514 18.8722C156.395 18.8589 156.263 18.8589 156.091 18.8854C155.933 18.9251 155.602 19.0971 155.101 19.4015C155.021 19.4412 154.903 19.4809 154.744 19.5074C154.652 19.5206 154.295 19.4412 153.648 19.2692C153.556 19.2559 153.49 19.2559 153.424 19.2692L153.226 19.3089C152.909 19.5074 152.737 19.6265 152.711 19.6662C152.539 19.7853 152.381 19.9971 152.248 20.275C151.866 21.6117 151.667 22.3395 151.654 22.4719C151.351 23.61 151.219 24.7482 151.258 25.8863C151.509 25.529 151.72 25.3173 151.918 25.2246C152.05 25.1717 152.182 25.1452 152.315 25.1452C152.843 25.1982 153.186 25.2246 153.358 25.1982L154.691 24.7085C154.823 24.682 154.969 24.6953 155.127 24.7217C155.748 24.907 156.104 24.9996 156.21 24.9864C156.329 24.9732 156.461 24.9599 156.58 24.9202C157.174 24.6688 157.544 24.5364 157.689 24.4967C157.847 24.4703 158.019 24.4703 158.191 24.51C158.758 24.7085 159.088 24.8011 159.154 24.7879C159.3 24.8011 159.683 24.6953 160.316 24.4306C160.422 24.3909 160.581 24.3776 160.792 24.3776C161.082 24.4041 161.478 24.5497 161.993 24.8276C162.046 24.8408 162.31 24.7747 162.786 24.6291C162.905 24.6158 163.037 24.6291 163.195 24.6953C163.288 24.7217 163.42 24.8144 163.591 24.9467C164.133 25.5423 164.476 25.8599 164.582 25.926Z" fill="white"/>
<path opacity="0.9961" d="M167.104 30.4125L168.107 29.7375L168.926 28.6258C169.018 28.5597 169.124 28.4803 169.282 28.4009C169.863 28.1891 170.207 28.0568 170.339 27.9906C170.524 27.9112 170.708 27.8053 170.893 27.673C171.118 27.5142 171.501 27.1039 172.016 26.4289C173.032 25.9922 173.614 25.6084 173.759 25.304C173.944 24.7614 173.389 23.438 172.108 21.3073C171.356 20.3014 170.907 19.7456 170.761 19.6397C170.418 19.3883 170.088 19.2559 169.784 19.2295H169.745C169.652 19.2295 169.56 19.2559 169.48 19.3089L169.005 19.8647C168.477 20.0765 168.2 20.1956 168.186 20.2353L167.526 21.3867L166.747 22.0616C166.325 24.1129 165.862 25.926 165.361 27.5142C165.11 28.3082 164.846 29.0361 164.582 29.7111C164.317 30.386 164.04 30.9948 163.75 31.5639L163.406 32.1991L163.538 31.8021L163.446 32.08L163.406 32.1991L163.314 32.3579C163.261 32.477 163.274 32.5564 163.354 32.5961C163.42 32.5564 163.565 32.5035 163.776 32.4506L165.149 32.1462C165.625 32.0006 166.008 31.8286 166.311 31.63C166.509 31.4712 166.774 31.0742 167.104 30.4125Z" fill="white"/>
<path opacity="0.9961" d="M175.37 41.1853C175.475 41.0926 175.713 40.9867 176.109 40.8544C176.162 40.8147 176.188 40.7882 176.201 40.7618C176.241 39.9148 176.162 38.2605 175.964 35.7856C175.845 34.6607 175.766 34.0122 175.739 33.8402C175.7 33.7079 175.647 33.6417 175.568 33.6549H175.554C174.934 34.0387 174.551 34.2372 174.379 34.2372C174.194 34.2902 173.759 34.3299 173.085 34.3431L172.742 34.4357C172.663 34.4755 172.438 34.6872 172.082 35.071C171.316 35.2298 170.893 35.3489 170.84 35.4151C170.629 35.521 170.312 35.8915 169.903 36.54C169.81 36.6326 169.705 36.7253 169.573 36.8179C169.348 36.9106 169.018 37.0032 168.569 37.1356C168.081 37.5326 167.777 37.7443 167.632 37.784C167.434 37.837 167.302 37.8634 167.222 37.8634C166.734 37.837 166.404 37.8502 166.245 37.8767C166.126 37.9164 166.008 37.9958 165.889 38.1414C165.862 38.1546 165.849 38.2208 165.836 38.3399L165.968 38.8163C166.074 39.0413 166.43 39.6501 167.051 40.6427C167.698 41.5955 168.094 42.1514 168.252 42.3234C168.939 43.1836 169.401 43.6998 169.652 43.8586C169.731 43.8586 169.81 43.8321 169.85 43.7792C170.048 43.4351 170.233 43.2234 170.405 43.1439C170.484 43.1175 170.814 43.1439 171.435 43.2234L172.293 42.8131C173.23 42.694 173.811 42.5749 174.023 42.469C174.287 42.4028 174.736 41.9793 175.37 41.1853Z" fill="white"/>
<path opacity="0.9961" d="M173.785 48.742L173.706 48.8611L174.802 50.1713L175.885 51.6271H178.05C178.01 51.2036 177.746 49.8934 177.218 47.6833C177.099 47.2068 176.981 46.9819 176.862 47.0216H176.849C176.822 47.0216 176.782 47.0348 176.743 47.048C176.611 47.1407 176.439 47.2333 176.241 47.3392C176.149 47.3789 176.056 47.4186 175.964 47.4318C175.819 47.4583 175.554 47.4318 175.145 47.3789C175.066 47.3789 174.973 47.4054 174.894 47.4451C174.841 47.4715 174.657 47.6436 174.34 47.9612C174.287 48.0009 174.102 48.0538 173.811 48.1333C173.785 48.1333 173.759 48.1597 173.719 48.1862C173.613 48.2788 173.561 48.3847 173.547 48.4906C173.561 48.7023 173.653 48.7817 173.785 48.742Z" fill="white"/>
<path opacity="0.9961" d="M184.6 38.3002L184.534 38.287H184.52C184.481 38.287 184.454 38.3002 184.415 38.3399C183.953 38.8428 183.662 39.134 183.53 39.1869L182.711 39.2398C182.183 39.5442 181.84 39.7163 181.668 39.756L180.321 39.9148L179.146 40.4442C178.961 40.4706 178.644 40.4442 178.169 40.378C178.103 40.378 178.05 40.3912 177.984 40.4044C177.878 40.4442 177.799 40.4839 177.76 40.5103L177.152 40.9735C177.218 43.6204 177.337 45.3806 177.496 46.2408C177.522 46.307 177.548 46.3599 177.601 46.4128L178.578 47.6304C178.631 47.6701 178.776 47.6304 179.014 47.5378C179.371 47.6039 179.608 47.6304 179.74 47.6304C179.78 47.6304 179.806 47.6172 179.846 47.6039L180.731 47.0216C180.863 46.9951 181.166 46.9819 181.629 46.9819C182.144 46.6775 182.474 46.5055 182.632 46.479C183.028 46.4261 183.583 46.5584 184.322 46.8893C184.415 46.9157 184.481 46.8893 184.507 46.8496C184.534 46.8231 184.56 46.6114 184.586 46.1879C184.586 45.6188 184.639 43.9645 184.745 41.225C184.745 40.6824 184.718 39.9942 184.666 39.1737L184.6 38.3002Z" fill="white"/>
<path opacity="0.9961" d="M184.388 24.9203C184.19 24.8938 183.768 24.7482 183.121 24.51C183.002 24.4703 182.896 24.4571 182.777 24.4571H182.764C182.606 24.4703 182.474 24.4968 182.368 24.563C181.879 24.9071 181.642 25.0526 181.629 25.0262C181.589 25.0659 181.298 25.0129 180.77 24.8938C180.625 24.8938 180.506 24.9071 180.401 24.96C180.308 24.9997 180.229 25.0526 180.176 25.0923L179.503 25.6482C179.384 25.7276 179.291 25.7938 179.212 25.8202C179.067 25.8864 178.724 25.9261 178.169 25.9526C178.09 25.9658 178.011 25.9923 177.931 26.032L176.862 26.9716C176.73 27.051 176.439 27.1437 175.977 27.2363C175.845 27.3157 175.726 27.4083 175.634 27.5407C175.581 27.5936 175.541 27.6995 175.502 27.8583L176.241 34.052C176.386 33.8138 176.505 33.6682 176.598 33.6417C177.245 33.8402 177.654 33.8667 177.839 33.7344C177.971 33.6814 178.222 33.4697 178.605 33.0859C178.671 33.0329 178.75 32.9932 178.842 32.9668C178.948 32.9403 179.067 32.9403 179.199 32.9668C179.727 33.1256 180.097 33.205 180.308 33.2315C180.467 33.2315 180.612 33.205 180.744 33.152C181.219 32.8477 181.483 32.7153 181.523 32.7418C182.447 32.9535 182.936 33.0329 182.989 32.9668C183.081 33.0197 183.464 32.7815 184.151 32.2521C184.243 32.2124 184.454 32.2124 184.758 32.2521C184.745 31.1404 184.864 28.5597 185.101 24.5497C185.101 24.5233 185.075 24.5233 185.049 24.5365C184.956 24.6556 184.851 24.7482 184.705 24.8277L184.388 24.9203Z" fill="white"/>
<path opacity="0.9961" d="M173.244 8.31115L171.844 9.43607L170.418 9.99191C169.982 10.4948 169.348 10.9183 168.543 11.2624C168.041 12.0565 167.658 12.5064 167.42 12.6255C167.302 12.7579 167.381 13.274 167.671 14.1872C167.685 14.2137 167.711 14.2269 167.751 14.2269L171.686 19.8118L171.976 19.1633L172.742 18.753C173.178 18.0649 173.481 17.6811 173.666 17.6149L175.343 17.3767L176.862 16.4635C177.971 16.265 178.618 16.1326 178.816 16.04C179.014 15.9738 179.542 15.5768 180.361 14.8489C180.493 14.7827 181.048 14.6769 182.025 14.5181L183.2 13.8166C183.345 13.7505 183.847 13.724 184.718 13.7505C184.785 12.7844 184.652 11.6991 184.296 10.4816C184.27 10.2169 183.9 9.23755 183.16 7.53032L182.632 6.44511C182.091 5.41283 181.813 4.93639 181.8 5.00256C181.378 4.64524 180.942 4.48642 180.493 4.52613H180.467L179.806 5.02903C179.067 5.16138 178.658 5.25402 178.618 5.30695C178.565 5.38636 178.288 5.65105 177.786 6.11425L177.364 6.44511L175.885 6.89507L174.815 7.86118L173.244 8.31115Z" fill="white"/>
<path opacity="0.9961" d="M168.134 3.62617L168.464 3.52029L168.847 3.37472C168.952 3.33501 169.084 3.26884 169.256 3.16297C169.494 2.99092 169.758 2.77917 170.048 2.51448C170.101 2.46155 170.193 2.40861 170.286 2.35567C170.418 2.2895 170.537 2.23656 170.629 2.22333C171.197 2.11745 171.501 2.05128 171.54 2.01158C171.633 1.97188 171.87 1.7866 172.253 1.48221C172.359 1.41603 172.465 1.3631 172.57 1.32339C172.663 1.28369 172.94 1.23075 173.402 1.16458C173.481 1.15135 173.587 1.11164 173.706 1.05871C173.798 1.019 174.115 0.767551 174.63 0.317584C174.762 0.224943 174.934 0.132303 175.158 0.0264282L167.803 0.224943C167.79 0.145537 167.764 0.18524 167.724 0.330818L167.632 0.780786L167.17 3.85115L167.13 4.42023C167.526 4.04967 167.803 3.82468 167.935 3.75851C168.015 3.67911 168.081 3.6394 168.134 3.62617Z" fill="white"/>
<path d="M126.79 32.4109C124.981 29.4464 123.172 26.4819 121.746 23.5439C121.271 22.5513 120.822 21.5587 120.386 20.5661C119.963 19.6133 119.554 18.6736 119.105 17.7605C118.656 16.8208 118.167 15.9209 117.626 15.0474C115.989 12.4535 113.784 10.2434 111.129 8.43026C108.475 6.61716 105.385 5.17461 102.322 3.75854C102.164 3.67913 101.979 3.75854 101.899 3.91735C101.82 4.07616 101.899 4.26144 102.058 4.34085C105.135 5.77016 108.172 7.18623 110.773 8.95963C113.361 10.733 115.513 12.877 117.098 15.4048C117.626 16.2518 118.101 17.1385 118.55 18.0516C118.986 18.9516 119.396 19.8912 119.818 20.8441C120.254 21.8234 120.69 22.8292 121.178 23.835C122.617 26.8128 124.44 29.7905 126.249 32.755C126.341 32.9006 126.539 32.9535 126.684 32.8608C126.83 32.755 126.882 32.5697 126.79 32.4109Z" fill="#4E4139"/>
<path opacity="0.9961" d="M215.842 172.615C215.459 171.927 214.468 171.107 212.897 170.154C211.458 169.267 209.147 168.103 205.951 166.673C204.829 166.17 203.905 165.919 203.165 165.919H203.086C202.571 165.945 202.069 166.078 201.554 166.303C199.045 167.533 197.58 168.222 197.183 168.38C196.391 168.738 195.85 168.936 195.573 168.989L197.316 169.744C197.316 169.902 197.355 170.061 197.408 170.233C197.461 170.392 197.54 170.551 197.646 170.723C197.672 170.802 197.87 171.067 198.24 171.504C198.808 172.152 199.573 172.589 200.511 172.827C201.409 172.999 202.439 172.827 203.601 172.338C203.746 172.285 203.878 172.205 204.01 172.126C205.397 172.139 206.506 172.192 207.325 172.285C208.183 172.364 208.975 172.457 209.675 172.562C212.448 173.012 213.953 173.251 214.204 173.277C214.402 173.317 214.693 173.33 215.076 173.317C215.538 173.317 215.842 173.264 215.96 173.145L216 173.092L215.842 172.615Z" fill="#4E4139"/>
<path opacity="0.9961" d="M66.7094 167.216L66.0624 167.388C65.2437 167.626 64.5967 167.864 64.1213 168.103C63.8836 168.222 63.6856 168.341 63.5403 168.473C62.4047 168.513 61.1767 168.777 59.843 169.254C59.2092 169.466 58.615 169.717 58.0472 169.969C57.6379 170.141 56.9908 170.511 56.0665 171.093C55.261 171.636 54.5216 172.232 53.8482 172.893C53.4916 173.211 53.1747 173.608 52.8974 174.111C52.7654 174.362 52.805 174.574 53.0295 174.733C53.2143 174.826 53.6501 174.865 54.3367 174.865C54.8121 174.865 55.3271 174.826 55.8817 174.746L56.3438 174.68C57.8227 174.389 59.2224 174.137 60.5561 173.912C61.0314 173.82 62.2859 173.661 64.3194 173.462C64.3326 173.462 64.3458 173.462 64.359 173.462C64.359 173.462 64.3722 173.462 64.3722 173.476C64.7287 173.714 65.0984 173.873 65.4946 173.952C65.9303 174.058 66.4453 174.032 67.0263 173.886C67.0131 173.912 67.1848 173.833 67.5545 173.661L67.9374 173.436C68.1751 173.264 68.3996 173.079 68.5976 172.854C68.7957 172.629 68.9674 172.39 69.1258 172.113L69.3371 171.676C69.3767 171.596 69.4031 171.504 69.4427 171.424C69.4559 171.411 69.4559 171.411 69.4691 171.411V171.398V171.385L69.4427 171.398C69.522 171.173 69.6012 170.935 69.654 170.683L66.7094 167.216Z" fill="#4E4139"/>
<path opacity="0.9961" d="M178.116 129.392C173.798 122.934 170.061 117.574 166.866 113.312C163.987 109.448 161.082 105.928 158.151 102.751C154.216 98.6487 151.192 96.1871 149.066 95.3533C146.755 94.1755 143.599 93.6064 139.585 93.6329C131.24 93.5799 125.1 95.2872 121.165 98.7546C118.59 101.64 117.283 106.351 117.243 112.876L100.605 128.638C97.2119 133.257 92.3658 138.749 86.054 145.114L75.7281 158.005C73.1136 160.863 69.786 163.868 65.7455 166.978L64.8211 167.719L70.235 171.557C81.9474 167.428 89.6193 164.251 93.2769 162.015C100.011 158.508 105.782 152.354 110.588 143.54C116.306 142.071 125.456 136.605 138.054 127.169C153.094 136.909 161.822 142.798 164.225 144.823C166.8 146.597 170.854 150.408 176.373 156.258C177.628 157.422 179.106 158.627 180.836 159.871L186.58 163.669L196.51 169.558L205.925 165.853C188.429 141.475 179.159 129.326 178.116 129.392Z" fill="#FFA959"/>
<path opacity="0.9961" d="M84.826 77.8576L84.5751 35.5739L82.1983 35.693C77.2598 61.1956 73.3512 79.2737 70.4726 89.9405L68.8221 111.83L64.6758 157.264L69.0201 158.547C69.3635 154.537 72.5854 145.326 78.6859 130.914L98.8756 105.187L84.826 77.8576Z" fill="#F5F7E9"/>
<path opacity="0.9961" d="M98.9813 87.3201C98.321 71.8624 96.2347 58.8134 92.7487 48.1597C91.3887 43.6336 89.9626 39.081 88.444 34.5019L84.0997 35.9312L84.5223 76.4415L98.4399 105.186L98.836 105.835L78.4086 130.173L68.3863 157.952L72.6118 158.415C76.243 156.192 79.5045 153.174 82.4096 149.389C88.893 141.528 92.5771 134.143 93.475 127.248L103.986 125.607C106.666 122.841 108.924 120.684 110.76 119.149C111.222 118.606 113.968 116.634 119.026 113.246C120.359 112.161 121.139 111.46 121.363 111.168C123.925 108.786 126.407 103.294 128.824 94.7181C115.764 92.0051 105.821 89.5435 98.9813 87.3201Z" fill="#9291D8"/>
<path opacity="0.9961" d="M76.7844 102.593L76.4543 101.878C76.1902 101.415 75.8337 100.951 75.398 100.515L75.0282 100.197C74.8962 99.906 74.6849 99.6281 74.4076 99.3634C73.3777 98.5164 72.6118 97.9738 72.0836 97.7091C71.6611 97.4312 70.9348 97.1797 69.9181 96.9547C69.852 96.9415 69.786 96.8753 69.7068 96.7827L69.6408 97.2459C69.4427 97.1797 69.2446 97.1003 69.0466 97.0341L68.6108 97.0209L67.8714 97.0738C67.0659 97.1929 66.4321 97.4973 65.9963 98.0135C65.9831 98.0002 65.9699 98.0002 65.9699 97.987C65.5342 97.7223 65.0984 97.4973 64.6495 97.3518C64.6363 97.2988 64.623 97.2326 64.6098 97.1797L64.1081 95.6048L63.3818 94.0299C62.6688 92.7594 62.1274 91.9389 61.7445 91.5419C59.8166 89.2524 57.3473 88.101 54.3367 88.101H53.9538C52.9238 88.1274 51.841 88.2995 50.6922 88.5774L40.4719 107.397C40.7756 107.992 41.3302 108.641 42.1225 109.329C43.6806 110.573 45.0671 111.526 46.2687 112.161C48.6323 113.273 50.7847 113.789 52.7125 113.67C54.5216 113.604 56.1457 113.206 57.585 112.479C57.7963 113.206 58.034 113.948 58.2981 114.715L58.9187 116.422L69.073 114.265C69.4691 114.252 69.8388 114.199 70.169 114.106C70.4331 114.027 70.6839 113.908 70.8952 113.776L70.9876 113.974L72.8759 113.074L74.949 111.208C75.3715 110.745 75.7677 110.216 76.111 109.62C76.3619 109.263 76.5732 108.786 76.7316 108.191C76.9033 107.661 77.0221 107.145 77.1146 106.655C77.2862 105.663 77.2994 104.723 77.141 103.85C77.0617 103.413 76.9429 103.003 76.7844 102.593Z" fill="#FFECE8"/>
<path opacity="0.9961" d="M90.2795 23.8218C90.2399 23.3718 90.1475 23.0277 90.0154 22.816C89.8834 22.591 89.6193 22.3528 89.2231 22.0881L88.9987 21.1352C88.9855 21.0955 88.959 21.0426 88.9326 20.9764C88.5629 20.3411 88.1404 19.9573 87.6782 19.825C87.6518 19.7853 87.6254 19.6927 87.599 19.5603C87.599 19.2162 87.599 18.978 87.5858 18.8457L87.4933 18.5677C87.3085 18.2104 87.084 18.0119 86.8199 17.9722H86.7935C86.569 18.0384 86.4634 18.0913 86.4898 18.1045C86.3446 18.3031 86.1729 18.6207 85.9748 19.0309C85.6843 18.806 85.4466 18.806 85.2618 19.0045C85.1297 19.1368 84.9845 19.4015 84.8524 19.8118C84.7996 20.1559 84.76 20.4073 84.76 20.5661C84.7204 21.0029 84.694 21.6249 84.6808 22.4189L84.6676 22.5248C84.6016 22.8424 84.5091 23.2527 84.3903 23.7291C83.8885 23.3453 83.5584 23.1733 83.4396 23.1865H83.4263C83.2679 23.2262 83.1755 23.2659 83.1358 23.3189C83.0698 23.4512 83.0038 23.61 82.951 23.8218C82.7397 24.5497 82.6341 25.2246 82.6473 25.8466C82.6605 26.6804 82.7133 27.2759 82.7661 27.6068C82.8057 27.8582 82.9774 28.7052 83.2679 30.1345L83.4396 30.8095L83.4924 30.7963C83.466 30.9815 83.4396 31.1801 83.4131 31.3786C83.3207 32.0535 83.2415 32.7682 83.1623 33.5225C83.1358 33.774 83.1358 33.9725 83.1623 34.1313L85.4995 34.9783C85.6711 35.6003 85.8428 36.09 86.0276 36.4341L86.9652 35.5077L87.3613 35.6533C87.3481 35.5209 87.3349 35.3489 87.3217 35.1504L88.378 34.1181C88.2328 33.8005 88.1404 33.324 88.114 32.6888C88.114 32.6094 88.1008 32.4903 88.114 32.3447L88.1404 32.3712L88.4309 31.3653C88.4837 31.2065 88.6289 30.9286 88.8534 30.5316L89.3024 29.3934C89.7645 28.2156 90.0286 27.448 90.0946 27.0774C90.2663 26.3098 90.3191 25.2246 90.2795 23.8218Z" fill="#FFECE8"/>
<path opacity="0.9961" d="M68.5844 160.241L68.043 160.109L68.3203 159.487C68.043 159.262 67.5545 159.024 66.8414 158.786C66.4321 158.666 66.0095 158.614 65.5738 158.614H65.4417C65.0984 158.627 64.7551 158.666 64.3986 158.746C64.3722 158.746 64.3326 158.786 64.2797 158.852C63.9364 159.315 63.5007 160.03 62.9593 160.969C61.4804 163.034 60.4108 164.423 59.777 165.138C59.5525 165.456 59.1828 166.078 58.6678 167.004C58.5754 167.216 58.5358 167.428 58.549 167.626C58.6018 167.97 58.7074 168.208 58.8395 168.327C58.7338 168.539 58.6414 168.857 58.5622 169.267C58.5358 169.479 58.5226 169.704 58.549 169.942C58.549 170.088 58.7074 170.246 59.0111 170.418C58.8395 171.014 58.8131 171.438 58.9583 171.676C59.0243 171.848 59.1696 171.954 59.3677 171.993C59.8298 171.742 60.1203 171.504 60.2656 171.305C60.4636 171.067 60.6617 170.776 60.8466 170.405C60.9126 170.379 61.0314 170.445 61.1767 170.604C61.2163 170.617 61.2823 170.617 61.3747 170.604C61.5332 170.564 61.8105 170.392 62.1802 170.088C62.2859 170.008 62.7744 169.426 63.6459 168.327L64.7155 167.216C64.8343 167.07 64.9664 166.898 65.0984 166.713C65.1116 166.978 65.138 167.269 65.1777 167.586C65.2173 167.811 65.3229 168.076 65.4946 168.38C65.5606 168.486 65.6398 168.539 65.7322 168.539C65.9039 168.552 66.0888 168.5 66.3 168.38C66.6566 168.089 66.9075 167.811 67.0263 167.533C67.1187 167.282 67.3168 166.66 67.6205 165.654L68.36 162.465C68.558 161.538 68.6505 160.824 68.624 160.334C68.624 160.268 68.6108 160.255 68.5844 160.241Z" fill="#FFECE8"/>
<path opacity="0.9961" d="M99.6283 129.816C98.8889 130.716 98.1362 131.602 97.3967 132.502L97.41 132.542L97.3043 132.555L97.3967 132.542H97.41L104.58 152.42L104.62 152.367C104.686 152.46 104.738 152.512 104.805 152.526L104.672 152.301L106.376 150.289C104.131 143.46 101.873 136.631 99.6283 129.816Z" fill="#FCCC5D"/>
<path opacity="0.9961" d="M171.237 136.658L166.417 146.451L168.384 148.211C171.633 142.004 174.868 135.784 178.116 129.577C177.43 128.677 176.743 127.764 176.056 126.864L171.237 136.658Z" fill="#FCCC5D"/>
<path opacity="0.9961" d="M203.443 162.756L192.034 167.07L196.206 169.598C199.508 168.433 202.809 167.282 206.11 166.117C205.212 164.992 204.327 163.881 203.443 162.756Z" fill="#FCCC5D"/>
<path opacity="0.9961" d="M65.0456 167.758L67.6073 169.611L70.169 171.464L75.3319 169.664C73.074 167.983 70.8028 166.303 68.5448 164.622C67.396 165.667 66.2208 166.713 65.0456 167.758Z" fill="#FCCC5D"/>
<path opacity="0.9961" d="M59.3676 110.335C59.3016 110.11 59.2356 109.911 59.1432 109.739C59.0639 109.567 58.9583 109.408 58.8527 109.276L58.681 109.091C58.5622 108.972 58.4301 108.892 58.2849 108.813C58.1396 108.733 57.9944 108.694 57.8227 108.667H57.6378L57.3737 108.68C57.2021 108.707 57.0436 108.747 56.8852 108.8L56.6607 108.905C56.3702 109.064 56.1325 109.302 55.908 109.62C55.776 109.832 55.71 109.964 55.6968 110.004C55.6307 110.176 55.5779 110.348 55.5515 110.494C55.5383 110.679 55.5383 110.785 55.5383 110.811L55.5515 110.904C55.5911 111.036 55.6175 111.168 55.6571 111.274C55.7496 111.526 55.8156 111.671 55.842 111.685C55.9344 111.83 56.0269 111.923 56.1325 111.962L58.6546 112.333C58.9319 112.015 59.1432 111.711 59.262 111.407C59.3148 111.261 59.3544 111.102 59.3808 110.957C59.394 110.811 59.394 110.666 59.3676 110.52V110.335Z" fill="#FFBC9A"/>
<path opacity="0.9961" d="M60.2523 95.8034L59.909 95.9225L59.6053 96.0681L59.3412 96.2401L59.13 96.4254L58.9451 96.6239L58.8131 96.8489L58.7206 97.1003L58.6546 97.365V97.6562L58.7206 97.9738L58.8131 98.2517L58.9451 98.4899L59.1168 98.7017L59.3016 98.8605L59.5393 98.9928L59.7902 99.0855L60.0807 99.1384L60.4372 99.1649L60.9258 99.0855L61.3615 98.9267L61.7445 98.7017L62.0746 98.3973L62.3519 98.0135L62.5763 97.5503L62.7612 97.0209L62.8801 96.4121L62.9461 95.7107L60.2523 95.8034Z" fill="#FFBC9A"/>
<path opacity="0.9961" d="M57.5454 103.426C57.519 103.413 57.4926 103.413 57.4662 103.413C57.4002 103.413 57.3342 103.453 57.3078 103.506C57.255 103.612 57.1625 103.704 57.0173 103.81C56.9512 103.85 56.872 103.863 56.806 103.863C56.7796 103.863 56.7532 103.863 56.7268 103.85C56.5683 103.81 56.4363 103.731 56.357 103.638C56.2778 103.532 56.2514 103.426 56.2778 103.32C56.291 103.228 56.2382 103.135 56.1458 103.109C56.1326 103.109 56.1194 103.109 56.1062 103.109C56.0269 103.109 55.9477 103.162 55.9345 103.254C55.8949 103.466 55.9345 103.665 56.0798 103.85C56.2118 104.009 56.3967 104.128 56.6343 104.194C56.6872 104.207 56.7532 104.22 56.806 104.22C56.938 104.22 57.0701 104.181 57.1889 104.115H57.2021C57.4002 103.982 57.5454 103.837 57.6247 103.678C57.6643 103.585 57.6247 103.479 57.5454 103.426Z" fill="#4D4038"/>
<path opacity="0.9961" d="M55.644 98.9134L55.5912 98.8605C55.5383 98.7943 55.4591 98.7281 55.3799 98.6884C55.3535 98.6752 55.3271 98.6619 55.3007 98.6619C55.2875 98.6487 55.2478 98.6487 55.1818 98.6487H55.1554C55.1158 98.6487 55.0894 98.6619 55.0498 98.6752C55.0366 98.6752 55.0102 98.6884 54.9706 98.7149C54.9177 98.7414 54.8649 98.7811 54.8121 98.8472C54.7989 98.8605 54.7857 98.8869 54.7461 98.9531C54.7329 98.9796 54.7197 99.006 54.7197 99.0193C54.7065 99.0458 54.7065 99.0722 54.7065 99.1252C54.7065 99.1384 54.6933 99.1781 54.6801 99.231C54.6801 99.2443 54.6801 99.284 54.6801 99.3369C54.6933 99.4825 54.7329 99.5884 54.8253 99.6678C54.9177 99.7604 55.0366 99.8001 55.1818 99.8001C55.2214 99.8001 55.2743 99.7869 55.3271 99.7737L55.4195 99.734L55.4855 99.7075C55.5251 99.681 55.5648 99.6545 55.5912 99.6281C55.6176 99.6016 55.644 99.5619 55.6704 99.5354L55.6968 99.4825C55.71 99.4428 55.7232 99.4031 55.7364 99.3634L55.7496 99.284C55.7496 99.2046 55.7364 99.1119 55.71 99.0325C55.6836 98.9928 55.6572 98.9531 55.644 98.9134Z" fill="#4D4038"/>
<path opacity="0.9961" d="M53.5973 106.96C53.5973 106.96 53.5841 106.92 53.5577 106.867C53.5313 106.828 53.5049 106.788 53.4784 106.761C53.452 106.735 53.4124 106.708 53.386 106.682L53.3332 106.656C53.2936 106.642 53.254 106.629 53.2011 106.616C53.1351 106.603 53.1087 106.603 53.0955 106.603H53.0295C52.8842 106.616 52.7786 106.669 52.6862 106.761C52.6598 106.788 52.6333 106.828 52.6069 106.867C52.6069 106.867 52.5937 106.894 52.5673 106.96L52.5409 107.026C52.5277 107.079 52.5277 107.119 52.5277 107.158C52.5277 107.304 52.5805 107.423 52.6994 107.542C52.7522 107.595 52.805 107.635 52.8578 107.648C52.8842 107.661 52.9106 107.675 52.9371 107.675C52.9503 107.675 52.9899 107.688 53.0427 107.688C53.1087 107.688 53.1747 107.661 53.2408 107.622C53.32 107.569 53.386 107.516 53.452 107.463C53.5709 107.344 53.6369 107.225 53.6369 107.105C53.6369 107.079 53.6369 107.066 53.6369 107.039C53.6237 107.026 53.6105 107 53.5973 106.96Z" fill="#4D4038"/>
<path opacity="0.9961" d="M62.616 103.757C62.5632 102.937 62.1142 102.301 61.2427 101.825C61.2163 101.812 61.1899 101.799 61.1635 101.799C61.0975 101.799 61.0446 101.838 61.005 101.891C60.9654 101.984 60.9918 102.09 61.071 102.129C61.8237 102.54 62.2198 103.082 62.2595 103.77C62.2727 104.181 62.1934 104.551 62.0086 104.895C61.8369 105.213 61.6256 105.398 61.3483 105.478C61.2559 105.504 61.2031 105.597 61.2295 105.703C61.2559 105.782 61.3219 105.835 61.4012 105.835C61.4144 105.835 61.4276 105.835 61.454 105.822C61.8237 105.716 62.1142 105.464 62.3255 105.067C62.55 104.657 62.6424 104.22 62.616 103.757Z" fill="#4D4038"/>
<path opacity="0.9961" d="M58.9055 94.3211C58.8262 94.1623 58.7074 94.0564 58.5622 94.0035C58.3773 93.9373 58.2188 93.9638 58.0868 94.0829L58.0736 94.0961C57.9415 94.2417 57.9151 94.4005 57.9679 94.5858C57.9944 94.6784 58.1 94.7314 58.1924 94.7049C58.2849 94.6784 58.3377 94.5726 58.3113 94.4799C58.2981 94.4137 58.2981 94.374 58.3377 94.3343C58.3641 94.3079 58.4037 94.3079 58.4565 94.3211C58.5225 94.3476 58.5754 94.3873 58.615 94.4667C58.6678 94.5726 58.681 94.6652 58.681 94.7711C58.681 94.8637 58.747 94.9564 58.8527 94.9564C58.9451 94.9564 59.0375 94.8902 59.0375 94.7843C59.0111 94.6387 58.9847 94.4799 58.9055 94.3211Z" fill="#4D4038"/>
<path opacity="0.9961" d="M89.0119 24.4968L89.0383 24.3247C89.0515 24.2188 89.0647 24.1262 89.0647 24.0468L89.0911 23.7556L89.1043 23.663L89.0911 23.7424C89.0647 23.8747 89.0515 23.9409 89.0383 23.9806C89.0119 24.0865 88.9987 24.1924 88.9855 24.3115L88.9722 24.3909L88.9194 24.907C88.8798 25.2114 88.8534 25.4629 88.8402 25.6481C88.9194 25.1982 88.959 24.9467 88.959 24.8938C88.9723 24.7482 88.9855 24.6159 89.0119 24.4968Z" fill="#4D4038"/>
<path opacity="0.9961" d="M88.8272 25.6613V25.6747C88.8272 25.715 88.8138 25.7687 88.8138 25.8358C88.8138 25.7955 88.8138 25.7284 88.8272 25.6613Z" fill="#4D4038"/>
<g opacity="0.9961">
<path opacity="0.9961" d="M100.526 105.769L85.6315 77.9899L85.8031 36.8973C86.5822 36.8444 87.2028 36.7517 87.665 36.6194C87.9687 36.5135 88.2592 36.4076 88.4969 36.2885L88.6817 36.1959C88.8006 36.1297 88.9062 36.0768 89.0118 36.0106C89.1175 35.9444 89.2099 35.8783 89.2891 35.8121L88.9194 33.8931C88.8666 33.7211 88.8006 33.6284 88.6949 33.6417C88.6421 33.6549 88.6025 33.6681 88.5629 33.6814C88.4705 33.0593 88.4573 32.6358 88.5233 32.3976C88.5233 32.3844 88.5233 32.3844 88.5233 32.3712C88.5893 32.0138 88.7345 31.458 88.9722 30.6904L89.8041 28.3479C89.8965 28.0965 89.9626 27.8582 90.0286 27.62C90.187 27.0245 90.2927 26.376 90.3719 25.6746C90.4775 24.5232 90.4643 23.6894 90.3455 23.1865C90.2795 22.7366 90.0814 22.3925 89.7513 22.1542C89.6985 21.4925 89.5004 20.9102 89.1835 20.4073C88.9194 20.0103 88.6421 19.7721 88.3648 19.6927C88.3384 19.3353 88.2724 19.0045 88.1668 18.6869C87.9951 18.1839 87.797 17.8928 87.5857 17.8001C87.5725 17.8001 87.5725 17.8001 87.5593 17.7869C87.4537 17.7604 87.3613 17.734 87.2556 17.734C87.0047 17.734 86.7671 17.8399 86.5294 18.0384C86.3709 18.1707 86.2389 18.3957 86.1597 18.6736C86.0936 18.6471 86.0144 18.6207 85.922 18.6207C85.8295 18.6207 85.7371 18.6339 85.6315 18.6604C85.341 18.753 85.0901 19.0309 84.892 19.4809C84.7864 19.7324 84.7204 19.9971 84.6807 20.2617V20.275C84.6543 20.3941 84.5619 21.1617 84.4035 22.5777C84.3903 22.7101 84.3374 22.9483 84.2714 23.2792C84.2582 23.2924 84.245 23.3056 84.245 23.3189C84.2318 23.3321 84.2186 23.3321 84.2054 23.3453C83.9941 23.1865 83.796 23.1071 83.598 23.1071C83.4923 23.1071 83.3867 23.1336 83.2943 23.1733C82.9113 23.3321 82.7001 23.7159 82.634 24.3379C82.6076 24.5894 82.5812 24.907 82.5812 25.3173C82.5812 26.0584 82.6076 26.6539 82.634 27.1171C82.6605 27.3818 82.6869 27.6597 82.7265 27.9509C82.7397 28.0832 82.8189 28.4935 82.9377 29.1817L83.0962 30.386C83.149 30.8624 83.1754 31.2065 83.1754 31.4051C83.1754 32.252 83.0698 33.0196 82.8453 33.7343C82.8057 33.6946 82.7397 33.6681 82.6737 33.6681C82.5812 33.6814 82.5152 33.7343 82.4888 33.8137C81.5381 36.3812 80.6005 38.9486 78.6331 49.2052C77.4579 55.346 75.9129 64.2659 74.2095 74.2711C74.0643 74.2181 73.8794 74.152 73.6418 74.0726C73.0343 73.8873 72.4005 73.7946 71.7403 73.7946L71.2913 73.8079C69.9049 73.9667 68.7693 74.2711 67.911 74.721L67.396 74.9725C66.7622 75.396 66.2076 75.8195 65.719 76.2562L65.0456 76.9047C64.623 77.3414 64.2797 77.7782 64.0024 78.2281C63.976 78.2811 63.9496 78.334 63.91 78.3869C63.8836 78.3472 63.8572 78.3075 63.8308 78.2546L63.0517 77.3017C62.5103 76.7062 61.9293 76.1636 61.3219 75.7004C60.7145 75.2239 60.0675 74.8269 59.3808 74.4828C58.6942 74.1387 57.9812 73.874 57.2285 73.6623L56.0665 73.3976L54.8517 73.2256H54.5216L53.2803 73.2653C50.0584 73.4902 47.6024 74.6549 45.9254 76.7327L45.252 77.8443C44.9351 78.4134 44.6842 78.956 44.4993 79.4986C44.024 79.2207 43.5222 78.9825 42.994 78.784C42.0037 78.3737 40.6964 78.1487 39.0458 78.1223L38.0555 78.162C36.7615 78.2811 35.5863 78.6252 34.5431 79.1942L33.7904 79.6707C33.3019 80.0148 32.8397 80.4118 32.4172 80.875C30.859 82.7807 29.9875 84.9512 29.8027 87.3863C29.763 88.1539 29.8159 88.9082 29.9611 89.6626L30.2384 90.7875C30.5817 91.9654 31.1627 93.1168 31.9682 94.2285C32.602 95.0357 33.3283 95.7239 34.1205 96.293C31.9946 97.0606 30.0932 98.3443 28.4294 100.157L27.5447 101.256C27.0033 101.997 26.5808 102.778 26.2638 103.585C25.63 105.2 25.4188 106.92 25.6432 108.76C25.9601 110.838 26.6336 112.69 27.6635 114.292L28.5086 115.456C29.116 116.197 29.8159 116.886 30.5949 117.508C31.374 118.13 32.2587 118.699 33.2226 119.202L34.5431 119.691C36.1937 120.26 37.8574 120.499 39.4948 120.406C39.9834 120.366 40.4587 120.287 40.9209 120.168C40.5908 120.71 40.3795 121.293 40.2739 121.901C40.0626 123.318 40.3663 124.562 41.185 125.634L41.6339 126.097L42.1621 126.507L42.7695 126.864C43.2977 127.169 43.8259 127.314 44.3541 127.301C44.671 127.288 44.9615 127.248 45.252 127.169C45.1596 127.407 45.0671 127.632 44.9879 127.883C44.7106 128.73 44.5125 129.644 44.3937 130.623L44.3673 132.277C44.4597 135.493 45.4897 138.219 47.4439 140.456C49.6359 142.878 52.356 144.175 55.6043 144.36C56.7795 144.281 57.4662 144.175 57.6643 144.043C58.1 143.897 58.5093 143.712 58.9055 143.487C59.262 143.275 59.6185 143.023 59.9486 142.732C59.8958 143.169 59.8694 143.593 59.8826 144.003L59.9222 144.731C60.0147 145.67 60.2787 146.531 60.7145 147.311C60.9258 147.695 61.1899 148.066 61.4804 148.41C61.5728 148.516 61.8237 148.701 62.2462 149.005C62.6688 149.323 63.2234 149.482 63.8968 149.469C64.359 149.416 64.7947 149.191 65.2173 148.794C64.7419 152.142 64.2797 155.57 63.8044 158.984C63.8044 158.997 63.8044 159.011 63.8044 159.037C63.3158 159.871 62.9989 160.4 62.8272 160.625C60.5164 163.735 59.1696 165.667 58.7866 166.409C58.4169 167.123 58.232 167.6 58.2453 167.811C58.2453 167.851 58.2585 167.891 58.2717 167.917C58.3113 168.05 58.3641 168.142 58.4433 168.222C58.4829 168.261 58.5093 168.288 58.5622 168.314C58.615 168.341 58.681 168.367 58.747 168.367H58.7602C58.7074 168.38 58.6678 168.42 58.6414 168.473C58.5093 168.711 58.4301 168.95 58.3905 169.148C58.3377 169.479 58.3245 169.744 58.3773 169.942C58.4433 170.194 58.5622 170.366 58.7338 170.458H58.747C58.813 170.485 58.8791 170.498 58.9319 170.511C58.7602 170.789 58.6678 171.12 58.6678 171.517V171.53C58.7074 171.993 58.8923 172.232 59.2356 172.258C59.2488 172.258 59.2488 172.258 59.262 172.258C59.5393 172.258 59.8166 172.126 60.0939 171.874C60.2788 171.715 60.5957 171.332 61.0182 170.749C61.137 170.802 61.2691 170.829 61.3879 170.829C61.6124 170.829 61.8237 170.736 62.0482 170.564C62.0614 170.564 62.0614 170.551 62.0746 170.551L62.9593 169.624L62.9725 169.611C63.6459 168.817 64.1609 168.235 64.5306 167.851C64.5306 167.851 64.5306 167.851 64.5438 167.851C64.6891 167.825 64.8211 167.825 64.9268 167.851C65.0852 168.341 65.4153 168.605 65.9171 168.632C65.9435 168.632 65.9567 168.632 65.9831 168.632C66.3396 168.632 66.683 168.301 67.0131 167.639C67.2243 167.229 67.4092 166.713 67.5677 166.078C68.1619 163.682 68.5844 161.869 68.8485 160.652C68.8485 160.625 68.8485 160.612 68.8485 160.585C68.9013 160.546 68.9409 160.506 68.9805 160.493C69.4559 160.321 69.8652 160.149 70.1954 159.99C70.5651 159.805 70.9084 159.619 71.2121 159.434C71.6743 159.156 72.1232 158.838 72.5722 158.481C72.7438 158.349 72.7967 158.269 72.7306 158.23C72.691 158.203 72.6514 158.19 72.6382 158.19L72.0572 158.124C71.6479 158.071 71.1725 158.005 70.6443 157.912C70.3274 157.859 69.9841 157.793 69.6144 157.727C73.9719 144.426 77.3654 135.453 79.8083 130.808L100.526 105.769ZM85.1297 20.4603C85.1165 20.4867 85.1033 20.5 85.0901 20.5264C85.1033 20.5 85.1165 20.4867 85.1297 20.4603ZM83.0962 27.1171C83.0698 26.6672 83.0434 26.0848 83.0434 25.357C83.0434 24.9732 83.0566 24.6688 83.0962 24.4306V24.4173C83.1358 23.9806 83.2679 23.7159 83.4659 23.6365H83.4791C83.5055 23.6233 83.532 23.6233 83.5584 23.61C83.7432 23.7159 83.8885 23.8879 83.9809 24.1129C84.0865 24.3644 84.1526 24.6291 84.179 24.907C84.2054 25.0526 84.2318 25.4893 84.2846 26.2172L84.311 26.4951C84.311 26.5216 84.3242 26.5216 84.3242 26.5216C84.3374 26.5216 84.3374 26.4819 84.3506 26.3892C84.3506 26.3363 84.377 26.1775 84.4035 25.8863C84.4563 25.1452 84.5091 24.51 84.5487 23.9938C84.5883 23.9541 84.6279 23.9144 84.6411 23.8482C84.76 23.2527 84.8392 22.8557 84.8656 22.6704C85.0241 21.3205 85.1033 20.5794 85.1429 20.4338C85.1429 20.4205 85.1561 20.4073 85.1561 20.3941C85.1957 20.1559 85.2617 19.9309 85.341 19.7059C85.473 19.3883 85.6183 19.203 85.7767 19.1501C85.7899 19.1501 85.8031 19.1501 85.8163 19.1368C85.8824 19.1765 85.9352 19.2295 86.0012 19.3089C86.0408 19.3618 86.0672 19.4412 86.0936 19.5206C86.12 19.6 86.1465 19.6927 86.1597 19.7985L86.1729 19.9044C86.1861 20.2617 86.1861 20.6323 86.1597 20.9764L85.9484 24.4835C85.9484 24.682 85.9484 24.8673 85.9484 25.0393C85.9616 25.1187 85.9748 25.1584 86.0012 25.1584C86.0144 25.1452 86.0408 25.1187 86.054 25.0526C86.0804 24.9202 86.0936 24.7879 86.1068 24.6688L86.2653 21.8366L86.4766 19.3353C86.4898 19.3221 86.4898 19.3089 86.4898 19.3089C86.5294 19.2692 86.5558 19.2295 86.5558 19.1633C86.6086 18.7795 86.701 18.528 86.8331 18.4089C86.9783 18.2898 87.1236 18.2236 87.2688 18.2236C87.3085 18.2236 87.3613 18.2236 87.4009 18.2369C87.4933 18.3692 87.5725 18.5677 87.6254 18.8192C87.6386 18.8854 87.6518 18.9648 87.665 19.0574C87.6914 19.3089 87.7046 19.4677 87.7046 19.5471C87.7178 19.8118 87.731 20.0897 87.731 20.4073C87.731 21.0029 87.7046 21.6381 87.665 22.3131C87.6386 22.591 87.6122 22.9483 87.5593 23.3983C87.5329 23.6894 87.4405 24.3644 87.2952 25.4496C87.2688 25.7937 87.2688 25.9922 87.3085 26.0319C87.3613 26.1113 87.4273 25.7937 87.5065 25.0923C87.731 22.6307 87.8366 21.3867 87.8366 21.3602C87.8498 21.1617 87.8762 20.9764 87.9159 20.7911C87.9951 20.4073 88.1667 20.2088 88.4176 20.1823C88.4572 20.2088 88.4837 20.2353 88.5233 20.275L88.6421 20.4603L88.7345 20.6058L88.8138 20.7646L88.893 20.9499L88.959 21.1617L89.0118 21.3999L89.0647 21.6513L89.1043 21.9293L89.1307 22.2337L89.1439 22.5513C89.1571 22.7763 89.1439 23.1468 89.1043 23.6365C89.1703 23.3321 89.2759 23.0674 89.3948 22.8292C89.4212 22.7763 89.4608 22.7101 89.5136 22.6572L89.5928 22.5777C89.7645 22.7366 89.8701 22.9615 89.9098 23.2395C89.9098 23.2527 89.9098 23.2527 89.9098 23.2527C90.0286 23.7159 90.0286 24.4967 89.9362 25.6084C89.8701 26.2834 89.7645 26.9186 89.606 27.4877C89.54 27.7127 89.474 27.9377 89.3948 28.1759L88.5629 30.5183V30.5316C88.3384 31.3124 88.18 31.8947 88.1139 32.2653C88.0215 32.5697 88.0347 33.0726 88.1535 33.7872C87.9159 33.8534 87.7046 33.9063 87.5197 33.9328C86.9519 34.0254 86.3841 34.0916 85.8163 34.1181C84.8788 34.1446 84.0337 34.0651 83.2679 33.9196C83.5055 33.1652 83.6376 32.3315 83.6376 31.4315C83.6376 31.2065 83.6112 30.836 83.5584 30.3331L83.3999 29.1155V29.1023C83.2811 28.4273 83.215 28.0171 83.2018 27.898C83.149 27.6465 83.1226 27.3686 83.0962 27.1171ZM52.422 96.5445C52.6465 96.6239 52.8842 96.6768 53.1219 96.7033L53.0559 96.8224C52.9634 96.8488 52.8446 96.9018 52.6729 96.9944C52.6069 97.0341 52.5409 97.0738 52.4881 97.1268C52.4485 97.1665 52.4088 97.2062 52.3692 97.2459L52.422 96.7562V96.5445ZM64.3722 107.198C64.5174 106.947 64.5834 106.748 64.6362 106.55C64.6759 106.431 64.6098 106.311 64.491 106.272C64.3722 106.232 64.2533 106.298 64.2137 106.417C64.1081 106.761 64.0024 107.119 63.1705 108.019C62.3255 108.932 60.7673 110.374 58.8263 110.996C58.0076 111.261 57.1229 111.38 56.2118 111.38C54.9837 111.38 53.7557 111.155 52.6993 110.798C51.0752 110.242 49.8604 109.342 48.672 108.389C48.6852 108.376 48.6852 108.376 48.6984 108.363C48.8832 108.191 49.0285 108.005 49.1473 107.82L49.2926 107.529C49.3322 107.423 49.3718 107.317 49.3982 107.211C49.3982 107.291 49.4114 107.41 49.4378 107.555C49.4378 107.595 49.451 107.648 49.4774 107.714L49.4906 107.754C49.517 107.833 49.5435 107.9 49.5699 107.952C49.5831 108.005 49.6095 108.085 49.6359 108.177C49.6491 108.217 49.6755 108.283 49.7019 108.349C49.7283 108.416 49.7943 108.522 49.9 108.68C50.0056 108.813 50.0848 108.879 50.1113 108.905C50.2169 108.972 50.3225 109.011 50.415 109.024C50.4546 109.024 50.4942 109.011 50.5338 108.998L50.5866 108.972C50.6262 108.945 50.6526 108.919 50.6923 108.879C50.7583 108.799 50.8111 108.68 50.8639 108.535C50.9563 108.257 50.9828 107.952 50.9299 107.635C50.9167 107.502 50.8771 107.357 50.8111 107.211C50.7583 107.092 50.7319 107.039 50.7319 107.039C50.7055 106.986 50.6526 106.907 50.5734 106.801C50.5074 106.708 50.3885 106.616 50.2433 106.523C50.098 106.47 50.0056 106.444 49.9528 106.444H49.9C49.7943 106.457 49.7151 106.497 49.6623 106.523C49.5567 106.589 49.4774 106.682 49.4246 106.788C49.4378 106.404 49.3586 105.994 49.1605 105.57C49.0417 105.319 48.8964 105.081 48.738 104.842C48.738 104.829 48.7248 104.816 48.7116 104.789C48.9096 104.657 49.1077 104.512 49.319 104.326L49.5963 103.995C49.7679 103.77 49.9132 103.532 50.032 103.281C50.1509 103.029 50.2565 102.778 50.3225 102.513C50.4678 101.984 50.5338 101.415 50.4942 100.806C50.481 100.753 50.481 100.7 50.4678 100.647C50.5602 100.568 50.6658 100.475 50.7583 100.382C50.8507 100.303 51.062 100.038 51.4053 99.5884C51.5241 99.4163 51.643 99.231 51.7486 99.059C51.9071 98.7678 52.0391 98.4767 52.1448 98.1723C52.1712 98.2385 52.2108 98.3046 52.2768 98.3973L52.3824 98.5031L52.5013 98.609L52.5541 98.6355C52.7258 98.7017 52.8446 98.7414 52.871 98.7281C52.9502 98.7414 53.0163 98.7414 53.0955 98.7281C53.2407 98.7149 53.3992 98.662 53.5576 98.5826C53.7425 98.4899 53.967 98.3311 54.2179 98.1194C54.3763 97.9605 54.5084 97.7885 54.614 97.59C54.8385 97.1532 54.8913 96.7827 54.7593 96.4915C54.8385 96.4518 54.9177 96.4121 54.9969 96.3592C55.2742 96.2004 55.5383 95.9886 55.8024 95.7372C55.9345 95.5784 56.0533 95.4328 56.1457 95.2872C56.1985 95.1946 56.2514 95.1152 56.3042 95.0357C56.3174 95.0225 56.3306 95.0093 56.3438 94.996C56.4494 94.8637 56.5155 94.7578 56.5815 94.652C56.6343 94.5328 56.6739 94.4402 56.6871 94.3873C56.7135 94.3079 56.7003 94.1755 56.6607 93.977C56.6739 93.7123 56.7399 93.4741 56.8588 93.2756C56.938 93.1697 57.0436 93.0771 57.1625 92.9844C57.3738 92.8521 57.651 92.7859 58.034 92.8124C58.166 92.8256 58.2981 92.8521 58.4301 92.8918C58.5622 92.9447 58.6942 93.0109 58.813 93.0903L58.9847 93.2094C59.2356 93.4344 59.3808 93.5667 59.4072 93.6329C59.5525 93.8447 59.6713 94.0961 59.777 94.4005C59.8826 94.6917 59.9354 94.9828 59.9486 95.2607C59.9618 95.5387 59.9222 95.8033 59.843 96.0548C59.8562 96.068 59.8694 96.0813 59.8958 96.0813H59.909C59.9222 96.1474 59.9486 96.2268 59.975 96.3062C60.2259 96.8356 60.6881 97.4179 61.3615 98.0532C62.1934 98.7281 62.8008 99.1252 63.197 99.2575C63.7119 99.4825 64.2401 99.6413 64.7815 99.7339C65.0192 99.7604 65.2833 99.7736 65.5474 99.7604C65.5606 100.422 65.4549 101.004 65.3361 101.613C65.3361 101.64 65.3361 101.653 65.3361 101.679C65.3493 101.785 65.4417 101.878 65.5474 101.878C65.653 101.878 65.7586 101.812 65.7718 101.693C65.8907 101.071 66.0095 100.435 65.9831 99.7075L66.0755 99.6942C66.4849 99.7075 66.881 99.6942 67.264 99.6413C68.0826 99.5222 68.7825 99.2575 69.3635 98.834C69.654 98.6223 69.9181 98.3708 70.1558 98.0929L70.4859 97.6429C70.5387 97.5635 70.5915 97.4709 70.6443 97.3782C72.2421 98.0664 73.5361 98.9002 74.5 99.8795C76.3355 101.56 77.2862 103.281 77.3522 105.041C77.3522 107.317 76.4939 109.382 74.7906 111.248C73.2984 112.783 71.5818 113.67 69.6144 113.895L69.588 113.762L69.3371 112.783L69.007 111.896L68.5976 111.115L68.109 110.441L67.5413 109.871L67.4884 109.832C66.6037 108.76 65.4813 107.966 64.3722 107.198ZM68.3203 160.585C68.0562 161.803 67.6337 163.603 67.0527 165.998C66.9074 166.594 66.7358 167.083 66.5377 167.467C66.3 167.97 66.0888 168.222 65.9039 168.222C65.8907 168.222 65.8907 168.222 65.8775 168.222H65.8643C65.6266 168.208 65.4549 168.103 65.3361 167.917C65.2965 167.772 65.2701 167.6 65.2701 167.414C65.2833 167.229 65.2965 167.057 65.3229 166.925C65.4285 166.488 65.5342 166.038 65.6266 165.575C65.6662 165.35 65.6794 165.244 65.6662 165.244H65.653C65.6134 165.257 65.5738 165.31 65.5078 165.389C64.9796 166.236 64.4646 167.004 63.9628 167.705C63.91 167.785 63.8572 167.851 63.8044 167.93C63.4743 168.288 63.0649 168.764 62.5631 169.347L61.6916 170.26C61.5596 170.366 61.4408 170.419 61.3087 170.419C61.2427 170.419 61.1635 170.405 61.0974 170.366C61.0842 170.352 61.071 170.339 61.071 170.313C61.0182 170.22 61.0182 170.061 61.0578 169.863C61.071 169.823 61.1238 169.691 61.2427 169.466L62.616 166.779L62.4443 167.11C61.9689 167.983 61.137 169.413 59.9486 171.398C59.8826 171.477 59.8166 171.543 59.7638 171.583L59.7506 171.596C59.5657 171.768 59.3808 171.861 59.2224 171.874C59.13 171.861 59.0771 171.755 59.0639 171.557C59.0639 171.424 59.0771 171.292 59.1035 171.186C59.1432 171.093 59.1828 170.988 59.2356 170.868L61.6652 166.461C61.8105 166.184 61.8897 166.038 61.8897 166.012L61.9029 165.959C61.8897 165.932 61.8765 165.919 61.8501 165.919H61.8369C61.7841 165.932 61.6388 166.117 61.4143 166.461C60.49 168.169 59.8958 169.188 59.6317 169.545C59.4601 169.77 59.2884 169.942 59.1168 170.048C59.0903 170.048 59.0639 170.061 59.0507 170.074C59.0111 170.101 58.9583 170.114 58.9319 170.114C58.9187 170.114 58.8923 170.114 58.8791 170.101C58.813 170.074 58.7734 169.995 58.747 169.876C58.747 169.849 58.7338 169.836 58.7338 169.81V169.823L58.7206 169.744C58.7206 169.638 58.7206 169.519 58.747 169.373C58.813 169.135 58.9451 168.817 59.1432 168.447C59.2488 168.248 59.3544 168.063 59.4733 167.878C60.2655 166.647 60.7277 165.906 60.8597 165.654C60.9918 165.442 61.0182 165.323 60.9654 165.323H60.9522C60.9126 165.337 60.8597 165.389 60.7805 165.482C60.292 166.184 59.8958 166.739 59.6185 167.15C59.4997 167.308 59.4073 167.441 59.3412 167.52C59.2224 167.666 59.1035 167.758 58.9715 167.798C58.9187 167.785 58.8923 167.772 58.8791 167.772C58.8527 167.758 58.813 167.719 58.7734 167.692C58.7602 167.679 58.7338 167.666 58.7074 167.653C58.7734 167.454 58.9187 167.136 59.1564 166.686C59.5393 165.959 60.873 164.04 63.1705 160.956C63.329 160.731 63.6327 160.241 64.0685 159.487L68.3731 160.599C68.3335 160.559 68.3203 160.572 68.3203 160.585ZM67.845 157.396C66.8546 157.184 65.7454 156.92 64.5306 156.628C65.6794 148.304 66.8282 140.085 67.911 132.952C68.0166 132.277 68.1222 131.602 68.2147 130.941C68.2411 130.808 68.2543 130.676 68.2807 130.557C68.3203 130.464 68.3599 130.371 68.3863 130.279L68.9805 126.758L69.073 125.289C69.4295 122.696 69.6936 120.353 69.7728 118.315C69.8124 118.103 69.8388 117.878 69.8652 117.627L69.8917 117.137C69.9049 116.793 69.9049 116.422 69.8785 116.012L69.786 114.821L69.6936 114.226C71.7271 113.974 73.5229 113.061 75.0678 111.46C76.8372 109.527 77.7087 107.383 77.722 105.001V104.988C77.6559 103.135 76.6656 101.335 74.7641 99.5884C73.7738 98.5826 72.4533 97.7355 70.8292 97.0209C70.9084 96.8621 70.9744 96.69 71.0405 96.518C71.1065 96.3327 71.1593 96.068 71.2121 95.7372C71.2385 95.6578 71.3045 95.0225 71.3838 93.8182C72.4401 87.5054 73.4833 81.2059 74.4868 75.2901L74.6057 74.7475C74.6189 74.6946 74.6189 74.6549 74.6057 74.6019C76.3091 64.4909 77.8804 55.4915 79.0688 49.2979C80.4685 41.9661 81.3532 38.5781 82.0795 36.315C82.3699 36.4473 82.9113 36.5929 83.7036 36.765C83.796 36.7782 83.9017 36.8047 83.9941 36.8179L84.0733 77.6855L98.5587 105.491L78.2765 129.683L67.845 157.396Z" fill="#D09D4F"/>
</g>
</svg>
